<svg width="24" height="24" viewBox="0 0 24 24" fill="none" xmlns="http://www.w3.org/2000/svg">
<path fill-rule="evenodd" clip-rule="evenodd" d="M11.1798 7.39902C11.1798 7.39902 11.2489 7.75 11.2725 7.75336C12.5451 7.93484 13.5 8.67719 13.5 10C13.5 11.4497 12.3247 12.625 10.875 12.625H4.125C2.67525 12.625 1.5 11.4497 1.5 10C1.5 8.67719 2.47846 7.58291 3.75111 7.40142C3.77469 7.39806 3.7978 7.39735 3.82022 7.39902C4.15833 5.67539 5.6773 4.375 7.5 4.375C9.3227 4.375 10.8417 5.67539 11.1798 7.39902Z" fill="#F3F3F3"/>
<path d="M4.32353 12.625C2.76414 12.625 1.5 11.3938 1.5 9.875C1.5 8.54842 2.46443 7.44122 3.74767 7.18224C4.18881 5.56594 5.70161 4.375 7.5 4.375C9.53306 4.375 11.2011 5.89702 11.3685 7.83498C12.5725 7.99596 13.5 9.00187 13.5 10.2188C13.5 11.5477 12.3939 12.625 11.0294 12.625H4.32353Z" stroke="#231815" stroke-width="2" stroke-linecap="round" stroke-linejoin="round"/>
<path fill-rule="evenodd" clip-rule="evenodd" d="M16.9064 10.532C16.9064 10.532 16.9985 11 17.03 11.0045C18.7268 11.2465 20 12.2362 20 14C20 15.933 18.433 17.5 16.5 17.5H7.5C5.567 17.5 4 15.933 4 14C4 12.2362 5.30461 10.7772 7.00148 10.5352C7.03293 10.5307 7.06373 10.5298 7.09363 10.532C7.54444 8.23385 9.56974 6.5 12 6.5C14.4303 6.5 16.4556 8.23385 16.9064 10.532Z" fill="#F3F3F3"/>
<path d="M7.76471 17.5C5.68552 17.5 4 15.8584 4 13.8333C4 12.0646 5.28591 10.5883 6.99689 10.243C7.58508 8.08792 9.60214 6.5 12 6.5C14.7107 6.5 16.9348 8.52937 17.158 11.1133C18.7634 11.3279 20 12.6692 20 14.2917C20 16.0636 18.5252 17.5 16.7059 17.5H7.76471Z" stroke="#231815" stroke-width="2" stroke-linecap="round" stroke-linejoin="round"/>
</svg>
