<svg width="40" height="40" viewBox="0 0 40 40" fill="none" xmlns="http://www.w3.org/2000/svg">
<path d="M6.56652 28.476C4.8359 28.477 3.42965 27.0688 3.42934 25.3385L3.42871 15.7326C3.42809 14.0038 4.83402 12.596 6.56246 12.5957C7.40277 12.5951 8.18965 12.921 8.78277 13.5135C9.3759 14.106 9.70215 14.8941 9.70277 15.732L9.70184 25.3382C9.70401 25.75 9.62413 26.1582 9.46687 26.5388C9.30961 26.9194 9.07812 27.2649 8.7859 27.5551C8.49543 27.848 8.14965 28.0802 7.76864 28.2383C7.38764 28.3964 6.97902 28.4772 6.56652 28.476ZM6.56402 13.4385C5.29746 13.4379 4.2709 14.467 4.27059 15.7326L4.27215 25.3376C4.27207 25.9462 4.51366 26.53 4.94384 26.9606C5.37402 27.3912 5.95756 27.6333 6.56621 27.6338C6.86761 27.6339 7.16606 27.5745 7.4445 27.4591C7.72293 27.3437 7.97589 27.1745 8.18889 26.9613C8.4019 26.7481 8.57078 26.4949 8.68587 26.2164C8.80097 25.9378 8.86002 25.6393 8.85965 25.3379V15.7313C8.85899 15.123 8.61682 14.5397 8.18637 14.1098C7.75592 13.6799 7.1724 13.4384 6.56402 13.4385Z" fill="white"/>
<path d="M31.1692 13.9146L30.3261 13.9143L9.66389 13.9171L8.82045 13.9174L8.81983 13.074C8.81795 9.61145 10.7042 6.39114 13.7939 4.48864L12.5926 2.29583C12.4458 2.03895 12.4089 1.71364 12.4945 1.41614C12.5379 1.26776 12.6104 1.12949 12.7077 1.00938C12.805 0.889257 12.9252 0.789685 13.0614 0.716451C13.2297 0.623773 13.4189 0.575687 13.6111 0.576764C14.0367 0.576764 14.4264 0.807701 14.632 1.18083L15.8892 3.47114C17.2005 2.99125 18.5863 2.74738 19.9826 2.75083C21.422 2.7502 22.8023 2.99364 24.1089 3.47301L25.3642 1.17895C25.4642 0.995928 25.6117 0.843251 25.7911 0.736999C25.9706 0.630747 26.1753 0.574852 26.3839 0.575201C26.5758 0.574595 26.7649 0.621626 26.9342 0.712076C27.0706 0.785283 27.1909 0.885085 27.2881 1.00558C27.3852 1.12608 27.4572 1.26484 27.4998 1.41364C27.5428 1.56038 27.5561 1.71419 27.539 1.86612C27.522 2.01805 27.4749 2.16508 27.4005 2.29864L26.1998 4.4902C29.2845 6.39676 31.1686 9.61458 31.1683 13.0711L31.1692 13.9146ZM25.0611 4.81333L26.662 1.88989C26.6849 1.85316 26.7 1.81216 26.7065 1.7694C26.713 1.72663 26.7107 1.68298 26.6998 1.64113C26.6888 1.59928 26.6695 1.56009 26.6429 1.52596C26.6163 1.49183 26.5831 1.46347 26.5452 1.44262C26.5073 1.42176 26.4655 1.40885 26.4225 1.40467C26.3794 1.40049 26.336 1.40512 26.2947 1.41829C26.2535 1.43145 26.2154 1.45288 26.1828 1.48125C26.1501 1.50963 26.1236 1.54436 26.1048 1.58333L24.4873 4.53645C23.1267 3.93208 21.6033 3.59239 19.993 3.59395C18.3861 3.59239 16.8655 3.93083 15.5089 4.53301L13.8898 1.58645C13.8701 1.54963 13.8432 1.5171 13.8107 1.49075C13.7783 1.46441 13.7409 1.44478 13.7008 1.433C13.6607 1.42123 13.6187 1.41754 13.5772 1.42215C13.5356 1.42677 13.4954 1.4396 13.4589 1.45989C13.3036 1.54301 13.2464 1.73833 13.333 1.89083L14.9345 4.81208C11.7876 6.4352 9.66139 9.52583 9.66326 13.0743L30.3251 13.0718C30.3261 9.52458 28.2036 6.4402 25.0611 4.81333M15.2936 9.33114C15.0638 9.33101 14.8435 9.23961 14.6811 9.07704C14.5187 8.91447 14.4275 8.69405 14.4276 8.46426C14.4278 8.23448 14.5192 8.01415 14.6817 7.85176C14.8443 7.68936 15.0647 7.5982 15.2945 7.59833C15.5243 7.59874 15.7446 7.69019 15.9071 7.85267C16.0697 8.01514 16.1612 8.23539 16.1617 8.4652C16.1614 8.69514 16.0697 8.91553 15.9069 9.07792C15.7441 9.2403 15.5235 9.33139 15.2936 9.33114M24.702 9.32926C24.5882 9.32947 24.4755 9.30721 24.3703 9.26377C24.2652 9.22033 24.1696 9.15656 24.0891 9.07611C24.0087 8.99567 23.9449 8.90013 23.9014 8.79497C23.8579 8.68982 23.8356 8.57712 23.8358 8.46333C23.8366 8.23361 23.9281 8.01351 24.0904 7.85093C24.2527 7.68834 24.4726 7.59644 24.7023 7.5952C24.9317 7.59709 25.1511 7.68931 25.313 7.85187C25.4748 8.01444 25.5661 8.23424 25.567 8.46364C25.5671 8.57727 25.5447 8.6898 25.5013 8.7948C25.4578 8.8998 25.3941 8.99522 25.3138 9.0756C25.2335 9.15598 25.1381 9.21975 25.0331 9.26328C24.9282 9.3068 24.8156 9.32922 24.702 9.32926M16.1595 39.4246C14.4304 39.4243 13.0233 38.018 13.023 36.2877L13.0223 32.048L12.198 32.049C11.7656 32.0504 11.3372 31.9661 10.9376 31.8008C10.5381 31.6354 10.1754 31.3924 9.87045 31.0858C9.56343 30.781 9.32013 30.4181 9.15472 30.0183C8.98932 29.6185 8.90511 29.1897 8.90701 28.7571L8.90389 13.8736V13.0296H9.74733L30.2545 13.0265L31.0983 13.0258V13.8693L31.1005 28.7546C31.1008 30.5699 29.6239 32.0471 27.8092 32.0468L26.9798 32.0474L26.9808 36.2855C26.9808 38.0149 25.5739 39.4227 23.8455 39.4227C23.4333 39.4246 23.0249 39.3445 22.6441 39.1869C22.2632 39.0293 21.9176 38.7975 21.6273 38.5049C21.3345 38.2147 21.1023 37.8693 20.9442 37.4886C20.7861 37.1079 20.7053 36.6996 20.7064 36.2874V32.0474H19.2967V36.2865C19.2961 38.0161 17.8895 39.4249 16.1595 39.4246" fill="white"/>
<path d="M9.7518 28.7568C9.7511 29.0785 9.8139 29.3971 9.93662 29.6944C10.0593 29.9918 10.2395 30.262 10.4669 30.4895C10.6942 30.717 10.9643 30.8974 11.2615 31.0204C11.5587 31.1433 11.8773 31.2064 12.199 31.2059H13.8655L13.8674 36.2884C13.8671 37.554 14.8952 38.5825 16.1596 38.5828C16.461 38.5826 16.7593 38.5231 17.0377 38.4076C17.316 38.2921 17.5689 38.1229 17.7818 37.9097C17.9948 37.6964 18.1636 37.4433 18.2787 37.1648C18.3939 36.8863 18.453 36.5879 18.4527 36.2865L18.453 31.2056L21.5496 31.2046L21.5493 36.2868C21.5505 37.5528 22.5799 38.5825 23.844 38.58C25.1115 38.5809 26.139 37.5512 26.1387 36.285L26.1371 31.204L27.8099 31.2037C29.1596 31.204 30.2574 30.1075 30.2574 28.7546L30.2546 13.8687L9.74805 13.8725L9.7518 28.7568ZM33.4365 28.4725C31.7065 28.4728 30.2993 27.0668 30.2996 25.3362L30.2971 15.7306C30.2977 14.0003 31.7027 12.5928 33.4318 12.5928C35.163 12.5925 36.5712 13.9996 36.5709 15.7296L36.5718 25.3346C36.5721 27.064 35.1662 28.4728 33.4365 28.4725M33.4334 13.4362C32.1668 13.435 31.1405 14.4634 31.1405 15.7306L31.1415 25.3359C31.1413 25.6372 31.2006 25.9356 31.3158 26.214C31.4311 26.4924 31.6001 26.7454 31.8132 26.9584C32.0263 27.1714 32.2793 27.3404 32.5577 27.4556C32.8361 27.5707 33.1345 27.6299 33.4359 27.6296C33.7371 27.6296 34.0354 27.5703 34.3138 27.4549C34.5921 27.3396 34.8449 27.1706 35.0579 26.9575C35.2709 26.7444 35.4397 26.4914 35.5549 26.213C35.67 25.9346 35.7292 25.6362 35.729 25.335L35.7265 15.73C35.7267 15.4287 35.6675 15.1304 35.5524 14.8521C35.4372 14.5737 35.2683 14.3208 35.0553 14.1078C34.8424 13.8948 34.5895 13.7258 34.3112 13.6106C34.0329 13.4953 33.7346 13.4361 33.4334 13.4362" fill="white"/>
<path d="M6.56395 13.4392C5.29738 13.4386 4.27082 14.4677 4.27051 15.7333L4.27207 25.3383C4.27186 25.6397 4.33107 25.9381 4.44629 26.2166C4.56152 26.4951 4.73051 26.7481 4.9436 26.9612C5.15669 27.1744 5.4097 27.3434 5.68816 27.4586C5.96662 27.5739 6.26507 27.6332 6.56645 27.633C6.86778 27.6333 7.16622 27.5742 7.44466 27.459C7.72311 27.3438 7.97609 27.1748 8.18911 26.9616C8.40212 26.7485 8.571 26.4954 8.68605 26.2169C8.8011 25.9384 8.86006 25.6399 8.85957 25.3386V15.732C8.85891 15.1237 8.61675 14.5404 8.18629 14.1105C7.75584 13.6806 7.17232 13.4392 6.56395 13.4392ZM25.0614 4.81361L26.6624 1.89017C26.7032 1.81601 26.7129 1.72871 26.6894 1.6474C26.6659 1.56609 26.6111 1.49741 26.5371 1.45642C26.4629 1.4163 26.3758 1.40715 26.2949 1.43098C26.214 1.45481 26.1458 1.50968 26.1052 1.58361L24.488 4.53767C23.1274 3.93205 21.6046 3.59267 19.9933 3.59424C18.3864 3.59267 16.8643 3.93111 15.5093 4.5333L13.8902 1.58674C13.8704 1.54996 13.8436 1.51746 13.8112 1.49114C13.7787 1.46482 13.7414 1.44519 13.7014 1.43339C13.6613 1.42159 13.6193 1.41785 13.5778 1.42239C13.5363 1.42694 13.4961 1.43967 13.4596 1.45986C13.4227 1.47958 13.3901 1.50647 13.3637 1.53894C13.3373 1.57141 13.3177 1.60882 13.3059 1.64898C13.2941 1.68913 13.2905 1.73123 13.2952 1.77281C13.2999 1.81438 13.3129 1.8546 13.3333 1.89111L14.9349 4.81267C11.788 6.43549 9.66176 9.52611 9.66363 13.0745L30.3255 13.0721C30.3264 9.52486 28.2039 6.44049 25.0614 4.81361M15.2939 9.33142C15.0642 9.3313 14.8438 9.2399 14.6814 9.07733C14.519 8.91476 14.4279 8.69433 14.428 8.46455C14.4281 8.23476 14.5195 8.01444 14.6821 7.85204C14.8447 7.68965 15.0651 7.59849 15.2949 7.59861C15.5247 7.59902 15.745 7.69048 15.9075 7.85295C16.07 8.01542 16.1616 8.23568 16.1621 8.46549C16.1617 8.69542 16.0701 8.91582 15.9073 9.0782C15.7445 9.24059 15.5239 9.33167 15.2939 9.33142M24.7024 9.32955C24.5886 9.32963 24.476 9.30729 24.3709 9.26381C24.2657 9.22032 24.1702 9.15655 24.0898 9.07612C24.0093 8.9957 23.9455 8.90021 23.902 8.79511C23.8585 8.69001 23.8361 8.57737 23.8361 8.46361C23.8374 8.23402 23.929 8.01416 24.0912 7.85166C24.2534 7.68917 24.4731 7.59713 24.7027 7.59549C24.9321 7.59738 25.1515 7.6896 25.3134 7.85216C25.4752 8.01472 25.5665 8.23452 25.5674 8.46392C25.5675 8.57758 25.5452 8.69015 25.5018 8.79519C25.4584 8.90022 25.3947 8.99567 25.3143 9.07607C25.234 9.15646 25.1386 9.22023 25.0336 9.26373C24.9286 9.30722 24.816 9.32959 24.7024 9.32955M9.74801 13.8727L9.75145 28.7586C9.75108 29.0801 9.81413 29.3985 9.937 29.6956C10.0599 29.9927 10.2401 30.2627 10.4675 30.49C10.6948 30.7173 10.9648 30.8975 11.2619 31.0204C11.559 31.1432 11.8774 31.2062 12.1989 31.2058L13.8655 31.2064L13.8674 36.2889C13.8671 37.5545 14.8958 38.5833 16.1596 38.5833C17.4271 38.5833 18.4539 37.5536 18.4543 36.2874L18.453 31.2061L21.5496 31.2052L21.5508 36.2874C21.5508 37.5521 22.5799 38.583 23.8439 38.5805C25.1114 38.5814 26.1389 37.5517 26.1386 36.2855L26.1371 31.2045L27.8096 31.2033C28.1311 31.2033 28.4495 31.1401 28.7466 31.017C29.0436 30.894 29.3136 30.7137 29.541 30.4864C29.7684 30.2591 29.9487 29.9892 30.0718 29.6921C30.1949 29.3951 30.2583 29.0767 30.2583 28.7552L30.2555 13.8692L9.74801 13.8727V13.8727ZM35.7274 15.7299C35.7274 15.4286 35.6681 15.1303 35.5528 14.852C35.4375 14.5737 35.2686 14.3208 35.0555 14.1078C34.8425 13.8949 34.5896 13.7259 34.3112 13.6107C34.0329 13.4955 33.7346 13.4363 33.4333 13.4364C32.1668 13.4352 31.1405 14.4636 31.1405 15.7308L31.1424 25.3364C31.1422 25.6377 31.2014 25.936 31.3165 26.2143C31.4317 26.4927 31.6007 26.7456 31.8137 26.9586C32.0267 27.1716 32.2796 27.3405 32.5579 27.4557C32.8363 27.5709 33.1346 27.6301 33.4358 27.6299C33.7371 27.6299 34.0354 27.5706 34.3138 27.4552C34.5921 27.3399 34.845 27.1709 35.0579 26.9578C35.2709 26.7447 35.4398 26.4917 35.5549 26.2132C35.6701 25.9348 35.7292 25.6365 35.7289 25.3352L35.7274 15.7299V15.7299Z" fill="#A4C439"/>
</svg>
