<svg width="40" height="40" viewBox="0 0 40 40" fill="none" xmlns="http://www.w3.org/2000/svg">
<path d="M30.5955 21.2145C30.6499 27.0895 35.7499 29.0448 35.8061 29.0698C35.763 29.2073 34.9915 31.8561 33.1196 34.5914C31.5015 36.9564 29.8218 39.3126 27.1764 39.362C24.5771 39.4095 23.7411 37.8201 20.769 37.8201C17.7977 37.8201 16.8693 39.3126 14.4083 39.4095C11.8546 39.5064 9.90989 36.8517 8.27833 34.4957C4.94458 29.6757 2.39676 20.8754 5.8177 14.9351C7.51708 11.9851 10.5546 10.1173 13.8511 10.0692C16.3586 10.0214 18.7255 11.7561 20.2583 11.7561C21.7902 11.7561 24.6665 9.66981 27.6902 9.97606C28.9561 10.0289 32.5093 10.4873 34.7908 13.8273C34.6074 13.9414 30.5514 16.3026 30.5955 21.2145M25.7102 6.78762C27.0658 5.14668 27.9783 2.86168 27.7296 0.588867C25.7752 0.667305 23.4121 1.89105 22.0105 3.53137C20.7543 4.98355 19.6543 7.30855 19.9508 9.53637C22.1293 9.70512 24.3543 8.42949 25.7102 6.78762" fill="black"/>
</svg>
