<svg width="40" height="40" viewBox="0 0 40 40" fill="none" xmlns="http://www.w3.org/2000/svg">
<path d="M4.68293 8.65984C4.60887 6.53016 6.26793 4.56641 8.51074 4.56641H31.492C33.7348 4.56641 35.3939 6.53016 35.3198 8.65984C35.2486 10.7055 35.3411 13.3555 36.0079 15.5161C36.677 17.6836 37.8051 19.0533 39.6529 19.2295V21.2255C37.8051 21.4017 36.677 22.7714 36.0079 24.9389C35.3411 27.0995 35.2486 29.7495 35.3198 31.7952C35.3939 33.9248 33.7348 35.8883 31.492 35.8883H8.51074C6.26793 35.8883 4.60887 33.9245 4.68293 31.7952C4.75418 29.7495 4.66168 27.0995 3.99449 24.9389C3.32574 22.7717 2.19449 21.4017 0.34668 21.2255V19.2295C2.19449 19.0536 3.32574 17.6836 3.99449 15.5161C4.66168 13.3555 4.75387 10.7055 4.68293 8.65984V8.65984Z" fill="url(#paint0_linear_3_6758)"/>
<g filter="url(#filter0_d_3_6758)">
<path d="M20.972 28.6676C24.6029 28.6676 26.7909 26.8898 26.7909 23.9575C26.7909 21.7409 25.2297 20.1362 22.9116 19.8822V19.7898C24.6147 19.5128 25.9512 17.9312 25.9512 16.1649C25.9512 13.6482 23.9642 12.0088 20.9365 12.0088H14.124V28.6676H20.972ZM16.7733 14.1215H20.2978C22.2138 14.1215 23.3019 14.9757 23.3019 16.5227C23.3019 18.1736 22.0364 19.0972 19.742 19.0972H16.7733V14.1215ZM16.7733 26.5549V21.0713H20.2741C22.7815 21.0713 24.0825 21.9948 24.0825 23.7958C24.0825 25.5967 22.817 26.5549 20.4279 26.5549H16.7733Z" fill="url(#paint1_linear_3_6758)"/>
<path d="M20.972 28.6676C24.6029 28.6676 26.7909 26.8898 26.7909 23.9575C26.7909 21.7409 25.2297 20.1362 22.9116 19.8822V19.7898C24.6147 19.5128 25.9512 17.9312 25.9512 16.1649C25.9512 13.6482 23.9642 12.0088 20.9365 12.0088H14.124V28.6676H20.972ZM16.7733 14.1215H20.2978C22.2138 14.1215 23.3019 14.9757 23.3019 16.5227C23.3019 18.1736 22.0364 19.0972 19.742 19.0972H16.7733V14.1215ZM16.7733 26.5549V21.0713H20.2741C22.7815 21.0713 24.0825 21.9948 24.0825 23.7958C24.0825 25.5967 22.817 26.5549 20.4279 26.5549H16.7733Z" stroke="white" stroke-width="0.24566"/>
</g>
<defs>
<filter id="filter0_d_3_6758" x="10.0704" y="8.93782" width="20.7737" height="24.7654" filterUnits="userSpaceOnUse" color-interpolation-filters="sRGB">
<feFlood flood-opacity="0" result="BackgroundImageFix"/>
<feColorMatrix in="SourceAlpha" type="matrix" values="0 0 0 0 0 0 0 0 0 0 0 0 0 0 0 0 0 0 127 0" result="hardAlpha"/>
<feOffset dy="0.98264"/>
<feGaussianBlur stdDeviation="1.96528"/>
<feColorMatrix type="matrix" values="0 0 0 0 0 0 0 0 0 0 0 0 0 0 0 0 0 0 0.15 0"/>
<feBlend mode="normal" in2="BackgroundImageFix" result="effect1_dropShadow_3_6758"/>
<feBlend mode="normal" in="SourceGraphic" in2="effect1_dropShadow_3_6758" result="shape"/>
</filter>
<linearGradient id="paint0_linear_3_6758" x1="6.18748" y1="5.39536" x2="40.5339" y2="32.6599" gradientUnits="userSpaceOnUse">
<stop stop-color="#9013FE"/>
<stop offset="1" stop-color="#6610F2"/>
</linearGradient>
<linearGradient id="paint1_linear_3_6758" x1="15.3225" y1="13.105" x2="22.9994" y2="26.0889" gradientUnits="userSpaceOnUse">
<stop stop-color="white"/>
<stop offset="1" stop-color="#F1E5FC"/>
</linearGradient>
</defs>
</svg>
