<svg width="40" height="40" viewBox="0 0 40 40" fill="none" xmlns="http://www.w3.org/2000/svg">
<g clip-path="url(#clip0_461_4379)">
<path d="M7.08334 3.22406e-06H32.9167C33.8471 -0.000896211 34.7686 0.186404 35.6284 0.551183C36.4882 0.915963 37.2694 1.45106 37.9273 2.12585C38.5852 2.80065 39.1069 3.60189 39.4626 4.48372C39.8183 5.36555 40.0009 6.31066 40 7.26496V32.735C40.0009 33.6893 39.8183 34.6345 39.4626 35.5163C39.1069 36.3981 38.5852 37.1994 37.9273 37.8741C37.2694 38.5489 36.4882 39.084 35.6284 39.4488C34.7686 39.8136 33.8471 40.0009 32.9167 40H7.08334C6.15289 40.0009 5.23141 39.8136 4.37162 39.4488C3.51184 39.084 2.73063 38.5489 2.07271 37.8741C1.41478 37.1994 0.893064 36.3981 0.537404 35.5163C0.181743 34.6345 -0.000873806 33.6893 3.14346e-06 32.735V7.26496C-0.000873806 6.31066 0.181743 5.36555 0.537404 4.48372C0.893064 3.60189 1.41478 2.80065 2.07271 2.12585C2.73063 1.45106 3.51184 0.915963 4.37162 0.551183C5.23141 0.186404 6.15289 -0.000896211 7.08334 3.22406e-06V3.22406e-06Z" fill="#A179DC"/>
<path d="M29.6669 16.5059V18.2391H31.4001V16.5059H32.2667V18.2391H34V19.1057H32.2667V20.8388H34V21.7054H32.2667V23.4387H31.4001V21.7054H29.6669V23.4387H28.8002V21.7054H27.0671V20.8388H28.8002V19.1057H27.0671V18.2391H28.8002V16.5059H29.6669ZM31.4001 19.1056H29.6669V20.8388H31.4001V19.1056Z" fill="white"/>
<path d="M20.2205 7.80091C24.7413 7.80091 28.6882 10.2561 30.8024 13.9055L30.7818 13.8703L25.4627 16.9329C24.4148 15.1586 22.4938 13.9612 20.2899 13.9365L20.2204 13.9361C16.8598 13.9361 14.1353 16.6606 14.1353 20.0212C14.1342 21.0804 14.4109 22.1214 14.9378 23.0403C15.9867 24.8714 17.9586 26.1064 20.2205 26.1064C22.4965 26.1064 24.4795 24.8557 25.523 23.005L25.4977 23.0494L30.8087 26.1261C28.7177 29.7446 24.8248 32.1922 20.3566 32.2409L20.2205 32.2417C15.6855 32.2417 11.7274 29.7714 9.6185 26.1027C8.58902 24.3117 8 22.2354 8 20.0212C8 13.2722 13.4711 7.80078 20.2204 7.80078L20.2205 7.80091Z" fill="white"/>
</g>
<defs>
<clipPath id="clip0_461_4379">
<rect width="40" height="40" fill="white"/>
</clipPath>
</defs>
</svg>
