<svg width="40" height="40" viewBox="0 0 40 40" fill="none" xmlns="http://www.w3.org/2000/svg">
<g clip-path="url(#clip0_461_4361)">
<path d="M7.08334 3.22406e-06H32.9167C33.8471 -0.000896211 34.7686 0.186404 35.6284 0.551183C36.4882 0.915963 37.2694 1.45106 37.9273 2.12585C38.5852 2.80065 39.1069 3.60189 39.4626 4.48372C39.8183 5.36555 40.0009 6.31066 40 7.26496V32.735C40.0009 33.6893 39.8183 34.6345 39.4626 35.5163C39.1069 36.3981 38.5852 37.1994 37.9273 37.8741C37.2694 38.5489 36.4882 39.084 35.6284 39.4488C34.7686 39.8136 33.8471 40.0009 32.9167 40H7.08334C6.15289 40.0009 5.23141 39.8136 4.37162 39.4488C3.51184 39.084 2.73063 38.5489 2.07271 37.8741C1.41478 37.1994 0.893064 36.3981 0.537404 35.5163C0.181743 34.6345 -0.000873806 33.6893 3.14346e-06 32.735V7.26496C-0.000873806 6.31066 0.181743 5.36555 0.537404 4.48372C0.893064 3.60189 1.41478 2.80065 2.07271 2.12585C2.73063 1.45106 3.51184 0.915963 4.37162 0.551183C5.23141 0.186404 6.15289 -0.000896211 7.08334 3.22406e-06V3.22406e-06Z" fill="#659AD2"/>
<path d="M17.4138 32.4272C10.5688 32.4272 5 26.8584 5 20.0134C5 13.1684 10.5688 7.59961 17.4138 7.59961C21.8307 7.59961 25.95 9.97649 28.164 13.8026L22.7916 16.9114C21.6835 14.9963 19.6227 13.8065 17.4138 13.8065C13.9912 13.8065 11.2069 16.5908 11.2069 20.0134C11.2069 23.4358 13.9912 26.2203 17.4138 26.2203C19.623 26.2203 21.6838 25.0305 22.792 23.115L28.1644 26.2237C25.9503 30.0502 21.8309 32.4272 17.4138 32.4272Z" fill="white"/>
<path d="M29.8276 19.3246H28.4482V17.9453H27.0691V19.3246H25.6897V20.7039H27.0691V22.0832H28.4482V20.7039H29.8276V19.3246Z" fill="white"/>
<path d="M35 19.3246H33.6206V17.9453H32.2415V19.3246H30.8621V20.7039H32.2415V22.0832H33.6206V20.7039H35V19.3246Z" fill="white"/>
</g>
<defs>
<clipPath id="clip0_461_4361">
<rect width="40" height="40" fill="white"/>
</clipPath>
</defs>
</svg>
