<svg width="40" height="40" viewBox="0 0 40 40" fill="none" xmlns="http://www.w3.org/2000/svg">
<path d="M38.9999 16.2812C37.6561 15.5 35.8749 15.4063 34.3749 15.8438C34.1874 14.2188 33.1249 12.8125 31.8749 11.8125L31.3749 11.4062L30.9374 11.9062C30.0936 12.875 29.8436 14.5 29.9686 15.75C30.0624 16.6563 30.3436 17.5938 30.9061 18.3438C30.4686 18.5938 29.9999 18.9375 29.5624 19.0937C28.6874 19.4062 27.7186 19.7187 26.7811 19.7187H24.6874V15.3125H20.6249V7.5H15.9374V11.25H8.12487V15.3125H4.06238V19.6875H0.562375L0.499875 20.1562C0.343625 22.1563 0.593625 24.0937 1.43737 25.9375L1.78112 26.625L1.81237 26.6875C4.28112 30.875 8.59362 32.625 13.3124 32.625C22.4374 32.625 29.9686 28.5312 33.4061 19.9375C35.7186 20.0625 38.0936 19.375 39.2186 17.1563L39.4999 16.5937L38.9999 16.2812V16.2812ZM8.74987 12.1875H11.8749V15.625H8.74987V12.1875ZM12.8436 26C12.8436 26.5312 12.4061 26.9688 11.8749 26.9688C11.3436 26.9688 10.9061 26.5312 10.9061 26C10.9061 25.4687 11.3436 25.0312 11.8749 25.0312C12.4061 25.0625 12.8436 25.4687 12.8436 26ZM8.74987 16.25H11.8749V19.6875H8.74987V16.25ZM4.68738 16.25H8.12487V19.6875H4.68738V16.25ZM13.3436 31.9375C8.40613 31.9062 5.74987 30.25 3.56237 28.0625C4.21862 28.0938 4.84362 28.125 5.40612 28.125C5.90612 28.125 6.40612 28.125 6.87487 28.0938C8.09362 28.0313 9.15612 27.875 10.0311 27.625C10.7499 29.2813 12.0624 30.8125 14.4061 31.9375H13.3436ZM15.9374 19.6875H12.4999V16.25H15.9374V19.6875ZM15.9374 15.625H12.4999V12.1875H15.9374V15.625ZM19.9999 19.6875H16.5624V16.25H19.9999V19.6875ZM19.9999 15.625H16.5624V12.1875H19.9999V15.625ZM19.9999 11.5625H16.5624V8.125H19.9999V11.5625ZM24.0624 19.6875H20.6249V16.25H24.0624V19.6875ZM12.1249 25.375C12.0624 25.3437 11.9686 25.3125 11.8749 25.3125C11.4999 25.3125 11.1874 25.625 11.1874 26C11.1874 26.375 11.4999 26.6875 11.8749 26.6875C12.2499 26.6875 12.5624 26.375 12.5624 26C12.5624 25.9062 12.5311 25.8125 12.4999 25.75C12.4374 25.8438 12.3749 25.9063 12.2499 25.9063C12.0936 25.9063 11.9686 25.7812 11.9686 25.625C11.9999 25.5 12.0624 25.4062 12.1249 25.375V25.375Z" fill="#019BC6"/>
</svg>
