<svg width="40" height="40" viewBox="0 0 40 40" fill="none" xmlns="http://www.w3.org/2000/svg">
<path fill-rule="evenodd" clip-rule="evenodd" d="M25.6585 24.5097C25.8082 24.1247 25.9779 23.7457 26.1045 23.3532C26.8195 21.1354 27.5276 18.9157 28.231 16.6941C28.5014 15.8407 28.7976 15.0004 29.3295 14.2669C30.1707 13.1079 31.3426 12.5007 32.7295 12.2885C33.2758 12.2073 33.8272 12.1649 34.3795 12.1616C36.0254 12.146 37.672 12.1569 39.3182 12.1585C39.4057 12.1585 39.4932 12.1676 39.6173 12.1747C39.577 12.2697 39.5551 12.3388 39.5201 12.401C38.9092 13.4929 38.3101 14.5913 37.681 15.6722C36.5857 17.5541 35.4885 19.4354 34.3589 21.2966C33.6342 22.4901 32.8482 23.6466 31.9567 24.726C31.2989 25.5222 30.6064 26.2835 29.7235 26.8416C29.122 27.2219 28.4795 27.4444 27.7501 27.4407C25.1632 27.4266 22.5764 27.4369 19.9895 27.4332C19.2204 27.4319 18.562 27.1391 18.0032 26.6197C17.2023 25.8757 16.7242 24.9285 16.3329 23.9297C15.6192 22.1063 15.2195 20.1951 14.7607 18.3004C14.5457 17.4135 14.3014 16.5335 14.0685 15.651C14.0535 15.5938 14.0242 15.5404 13.9904 15.4582L13.8101 15.6276C12.8014 16.6297 11.9129 17.7341 11.1179 18.9082C10.9014 19.2282 10.8285 19.6501 10.7076 20.0304C10.2626 21.4272 9.85698 22.8376 9.3751 24.2213C8.91354 25.5469 8.08604 26.6013 6.7926 27.2244C6.0426 27.588 5.22307 27.7857 4.38979 27.8041C3.14604 27.8316 1.90166 27.8347 0.657601 27.846C0.360101 27.8488 0.346351 27.8244 0.423851 27.5366C0.957289 25.556 1.63323 23.626 2.4801 21.7579C3.35323 19.8307 4.38166 17.9929 5.67729 16.3144C6.55948 15.1716 7.53385 14.1172 8.75323 13.3201C9.37166 12.916 10.0292 12.5966 10.7773 12.5126C10.9004 12.4985 11.0251 12.4897 11.1489 12.4897C13.7982 12.4885 16.4476 12.5154 19.0967 12.4776C20.5176 12.4572 21.5464 13.0572 22.3167 14.201C22.7957 14.9122 23.1385 15.6888 23.427 16.491C24.0085 18.1091 24.3701 19.7869 24.7785 21.4529C25.0123 22.4063 25.2726 23.3532 25.522 24.3029C25.5407 24.3741 25.571 24.4422 25.5964 24.5116L25.6585 24.5097V24.5097Z" fill="#1384C8"/>
</svg>
