<svg width="40" height="40" viewBox="0 0 40 40" fill="none" xmlns="http://www.w3.org/2000/svg">
<path d="M7.08334 3.22406e-06H32.9167C33.8471 -0.000896211 34.7686 0.186404 35.6284 0.551183C36.4882 0.915963 37.2694 1.45106 37.9273 2.12585C38.5852 2.80065 39.1069 3.60189 39.4626 4.48372C39.8183 5.36555 40.0009 6.31066 40 7.26496V32.735C40.0009 33.6893 39.8183 34.6345 39.4626 35.5163C39.1069 36.3981 38.5852 37.1994 37.9273 37.8741C37.2694 38.5489 36.4882 39.084 35.6284 39.4488C34.7686 39.8136 33.8471 40.0009 32.9167 40H7.08334C6.15289 40.0009 5.23141 39.8136 4.37162 39.4488C3.51184 39.084 2.73063 38.5489 2.07271 37.8741C1.41478 37.1994 0.893064 36.3981 0.537404 35.5163C0.181743 34.6345 -0.000873806 33.6893 3.14346e-06 32.735V7.26496C-0.000873806 6.31066 0.181743 5.36555 0.537404 4.48372C0.893064 3.60189 1.41478 2.80065 2.07271 2.12585C2.73063 1.45106 3.51184 0.915963 4.37162 0.551183C5.23141 0.186404 6.15289 -0.000896211 7.08334 3.22406e-06V3.22406e-06Z" fill="#F0F0F0"/>
<path d="M34.4344 18.6638L21.3353 5.5658C20.5816 4.8114 19.3582 4.8114 18.6036 5.5658L15.8837 8.28605L19.3338 11.7363C20.1358 11.4655 21.0551 11.647 21.6942 12.2862C22.3365 12.9294 22.5168 13.8566 22.2392 14.6614L25.5645 17.9868C26.369 17.7095 27.2972 17.8886 27.9395 18.5322C28.8376 19.4301 28.8376 20.885 27.9395 21.7831C27.0413 22.6814 25.5865 22.6814 24.6877 21.7831C24.0124 21.1072 23.8454 20.115 24.1874 19.2829L21.0863 16.1816L21.086 24.3426C21.305 24.451 21.5116 24.5957 21.6941 24.7774C22.5919 25.6751 22.5919 27.1298 21.6941 28.029C20.796 28.9268 19.3405 28.9268 18.4433 28.029C17.5453 27.1298 17.5453 25.6752 18.4433 24.7774C18.6652 24.5558 18.922 24.3882 19.196 24.2758V16.0389C18.9219 15.927 18.6654 15.7606 18.4432 15.5372C17.763 14.8576 17.5992 13.8593 17.948 13.024L14.5469 9.62224L5.56596 18.6033C4.81135 19.3583 4.81135 20.5817 5.56596 21.3362L18.6642 34.4342C19.4184 35.1886 20.6413 35.1886 21.3965 34.4342L34.4342 21.3981C35.1886 20.6433 35.1886 19.4195 34.4342 18.6649" fill="#F05133"/>
</svg>
