<svg width="40" height="40" viewBox="0 0 40 40" fill="none" xmlns="http://www.w3.org/2000/svg">
<path fill-rule="evenodd" clip-rule="evenodd" d="M20.0002 1.59473C9.57922 1.59473 1.12891 10.0432 1.12891 20.466C1.12891 28.8041 6.53609 35.8775 14.0342 38.3732C14.977 38.5482 15.3233 37.9638 15.3233 37.4654C15.3233 37.0154 15.3058 35.5288 15.2977 33.9519C10.0477 35.0935 8.93984 31.7254 8.93984 31.7254C8.08141 29.5441 6.84453 28.9641 6.84453 28.9641C5.13203 27.7929 6.97359 27.8172 6.97359 27.8172C8.86828 27.95 9.86641 29.7619 9.86641 29.7619C11.5495 32.6463 14.2811 31.8125 15.358 31.3307C15.5273 30.111 16.0164 29.2782 16.5561 28.8069C12.3645 28.3304 7.95797 26.7119 7.95797 19.481C7.95797 17.4207 8.69547 15.7372 9.90266 14.4154C9.70641 13.9404 9.06047 12.021 10.0852 9.4216C10.0852 9.4216 11.6695 8.91441 15.2758 11.356C16.7814 10.9375 18.3961 10.7272 20.0002 10.72C21.6033 10.7272 23.2189 10.9369 24.7273 11.3554C28.3292 8.91379 29.9117 9.42098 29.9117 9.42098C30.9389 12.02 30.293 13.9397 30.097 14.4147C31.307 15.7366 32.0392 17.42 32.0392 19.4804C32.0392 26.7285 27.6245 28.3241 23.4223 28.7916C24.0995 29.3772 24.7027 30.526 24.7027 32.2863C24.7027 34.8113 24.6808 36.8435 24.6808 37.465C24.6808 37.9672 25.0208 38.5557 25.977 38.3704C33.4708 35.8722 38.8717 28.801 38.8717 20.466C38.8714 10.0438 30.422 1.59504 20.0002 1.59504V1.59473Z" fill="#181616"/>
<path d="M8.27624 28.6896C8.23468 28.7833 8.08718 28.8114 7.95281 28.7474C7.81531 28.6861 7.73874 28.5583 7.78312 28.4643C7.82374 28.3674 7.97156 28.3408 8.10812 28.4055C8.24562 28.4671 8.32374 28.5961 8.27593 28.6899L8.27624 28.6896ZM9.04062 29.5424C8.95093 29.6258 8.77499 29.5871 8.65562 29.4549C8.53187 29.3236 8.50874 29.1477 8.60031 29.063C8.69343 28.9799 8.86406 29.0193 8.98781 29.1505C9.11093 29.2836 9.13531 29.458 9.04093 29.5427L9.04062 29.5424ZM9.78499 30.6289C9.66937 30.7096 9.47999 30.6343 9.36312 30.4664C9.24749 30.2983 9.24749 30.0968 9.36624 30.0164C9.48281 29.9358 9.66937 30.0086 9.78812 30.1749C9.90312 30.3452 9.90312 30.5468 9.78499 30.6286V30.6289ZM10.8041 31.6793C10.7009 31.7933 10.4803 31.7627 10.3191 31.6074C10.1544 31.4552 10.1084 31.2386 10.2119 31.1249C10.3169 31.0105 10.5384 31.0424 10.7006 31.1968C10.8653 31.3486 10.915 31.5655 10.8047 31.6789L10.8041 31.6793ZM12.2103 32.2889C12.1644 32.4368 11.9525 32.5039 11.7384 32.4408C11.525 32.3761 11.3853 32.2033 11.4291 32.0539C11.4728 31.9049 11.6862 31.8352 11.9016 31.9024C12.115 31.9668 12.2547 32.1386 12.2103 32.2889ZM13.755 32.4018C13.7603 32.5574 13.5791 32.6861 13.355 32.6893C13.1291 32.6946 12.9462 32.5683 12.9441 32.4152C12.9441 32.258 13.1216 32.1308 13.3472 32.1264C13.5712 32.1224 13.7553 32.2474 13.7553 32.4014L13.755 32.4018ZM15.1919 32.1574C15.2187 32.3089 15.0628 32.4649 14.84 32.5064C14.6212 32.5471 14.4181 32.4527 14.39 32.3024C14.3631 32.1468 14.5219 31.9908 14.7406 31.9505C14.9637 31.9121 15.1637 32.0036 15.1919 32.1577V32.1574Z" fill="#181616"/>
</svg>
