<svg width="40" height="40" viewBox="0 0 40 40" fill="none" xmlns="http://www.w3.org/2000/svg">
<g clip-path="url(#clip0_461_4385)">
<path d="M7.08334 3.22406e-06H32.9167C33.8471 -0.000896211 34.7686 0.186404 35.6284 0.551183C36.4882 0.915963 37.2694 1.45106 37.9273 2.12585C38.5852 2.80065 39.1069 3.60189 39.4626 4.48372C39.8183 5.36555 40.0009 6.31066 40 7.26496V32.735C40.0009 33.6893 39.8183 34.6345 39.4626 35.5163C39.1069 36.3981 38.5852 37.1994 37.9273 37.8741C37.2694 38.5489 36.4882 39.084 35.6284 39.4488C34.7686 39.8136 33.8471 40.0009 32.9167 40H7.08334C6.15289 40.0009 5.23141 39.8136 4.37162 39.4488C3.51184 39.084 2.73063 38.5489 2.07271 37.8741C1.41478 37.1994 0.893064 36.3981 0.537404 35.5163C0.181743 34.6345 -0.000873806 33.6893 3.14346e-06 32.735V7.26496C-0.000873806 6.31066 0.181743 5.36555 0.537404 4.48372C0.893064 3.60189 1.41478 2.80065 2.07271 2.12585C2.73063 1.45106 3.51184 0.915963 4.37162 0.551183C5.23141 0.186404 6.15289 -0.000896211 7.08334 3.22406e-06V3.22406e-06Z" fill="#000B1D"/>
<path d="M6.0033 17.5086C5.93945 17.5086 5.92349 17.4766 5.95542 17.4287L6.29061 16.9978C6.32254 16.9499 6.40235 16.918 6.46619 16.918H12.1646C12.2284 16.918 12.2444 16.9659 12.2125 17.0137L11.9411 17.4287C11.9092 17.4766 11.8294 17.5245 11.7815 17.5245L6.0033 17.5086Z" fill="#2DBCAF"/>
<path d="M3.59314 18.9773C3.5293 18.9773 3.51333 18.9454 3.54526 18.8975L3.88046 18.4665C3.91238 18.4186 3.99219 18.3867 4.05604 18.3867H11.3347C11.3985 18.3867 11.4304 18.4346 11.4145 18.4825L11.2868 18.8656C11.2708 18.9294 11.207 18.9613 11.1431 18.9613L3.59314 18.9773Z" fill="#2DBCAF"/>
<path d="M7.45594 20.4461C7.39209 20.4461 7.37613 20.3982 7.40805 20.3503L7.63152 19.9512C7.66344 19.9034 7.72729 19.8555 7.79114 19.8555H10.9835C11.0474 19.8555 11.0793 19.9034 11.0793 19.9672L11.0474 20.3503C11.0474 20.4141 10.9835 20.462 10.9356 20.462L7.45594 20.4461Z" fill="#2DBCAF"/>
<path d="M24.0244 17.2221C23.0188 17.4775 22.3324 17.669 21.3428 17.9244C21.1034 17.9883 21.0874 18.0042 20.8799 17.7648C20.6405 17.4935 20.4649 17.3179 20.1297 17.1583C19.1241 16.6634 18.1504 16.8071 17.2406 17.3977C16.1552 18.1 15.5965 19.1375 15.6125 20.4304C15.6285 21.7074 16.5064 22.7609 17.7673 22.9365C18.8528 23.0801 19.7626 22.697 20.4809 21.883C20.6245 21.7074 20.7522 21.5159 20.9118 21.2924C20.3372 21.2924 19.6189 21.2924 17.8312 21.2924C17.496 21.2924 17.4162 21.0849 17.5279 20.8135C17.7354 20.3187 18.1185 19.4887 18.342 19.0737C18.3899 18.9779 18.5016 18.8183 18.741 18.8183C19.5551 18.8183 22.5559 18.8183 24.5511 18.8183C24.5192 19.2493 24.5192 19.6802 24.4554 20.1112C24.2798 21.2605 23.8488 22.3139 23.1465 23.2397C21.9972 24.7561 20.4968 25.6979 18.5974 25.9533C17.0331 26.1608 15.5806 25.8575 14.3036 24.8998C13.1224 24.0059 12.452 22.8247 12.2765 21.3562C12.069 19.6164 12.5797 18.0521 13.6332 16.6794C14.7665 15.1949 16.2669 14.2532 18.1025 13.918C19.603 13.6466 21.0395 13.8222 22.3324 14.7001C23.1784 15.2588 23.785 16.025 24.184 16.9508C24.2798 17.0944 24.216 17.1742 24.0244 17.2221Z" fill="#2DBCAF"/>
<path d="M29.3079 26.0497C27.8553 26.0177 26.5305 25.6027 25.4132 24.645C24.4714 23.831 23.8808 22.7934 23.6893 21.5644C23.402 19.7607 23.8968 18.1645 24.9822 16.7439C26.1474 15.2115 27.5521 14.4134 29.4515 14.0782C31.0796 13.7909 32.612 13.9506 34.0007 14.8923C35.2616 15.7542 36.0438 16.9195 36.2513 18.4518C36.5226 20.6067 35.9001 22.3625 34.4157 23.8629C33.3622 24.9323 32.0693 25.6027 30.5848 25.906C30.1538 25.9858 29.7229 26.0018 29.3079 26.0497ZM33.1068 19.6011C33.0908 19.3936 33.0908 19.2339 33.0589 19.0743C32.7716 17.4941 31.3191 16.6002 29.8027 16.9514C28.3182 17.2866 27.3605 18.2283 27.0093 19.7288C26.722 20.9738 27.3286 22.2348 28.4778 22.7455C29.3557 23.1286 30.2336 23.0807 31.0796 22.6498C32.3406 21.9953 33.027 20.9738 33.1068 19.6011Z" fill="#2DBCAF"/>
</g>
<defs>
<clipPath id="clip0_461_4385">
<rect width="40" height="40" fill="white"/>
</clipPath>
</defs>
</svg>
