<svg width="40" height="40" viewBox="0 0 40 40" fill="none" xmlns="http://www.w3.org/2000/svg">
<path d="M13.9344 1.31556C9.9378 2.70202 6.49112 5.33358 4.10064 8.82369C1.71016 12.3138 0.501892 16.4785 0.653301 20.7061C0.80471 24.9336 2.30782 29.0012 4.94185 32.3114C7.57587 35.6216 11.202 37.9998 15.2875 39.0968C18.5998 39.9515 22.0701 39.989 25.4 39.2062C28.4167 38.5286 31.2056 37.0792 33.4938 34.9999C35.8753 32.7698 37.6039 29.9327 38.4938 26.7937C39.4607 23.3801 39.6328 19.7904 38.9969 16.2999H20.3969V24.0156H31.1688C30.9535 25.2461 30.4922 26.4207 29.8124 27.4688C29.1326 28.5169 28.2484 29.4171 27.2125 30.1156C25.8973 30.986 24.4145 31.5715 22.8594 31.8343C21.2999 32.1244 19.7002 32.1244 18.1407 31.8343C16.5599 31.5079 15.0645 30.8554 13.75 29.9187C11.638 28.4236 10.0522 26.2997 9.21879 23.8499C8.37157 21.3543 8.37157 18.6487 9.21879 16.1531C9.812 14.4037 10.7926 12.811 12.0875 11.4937C13.5694 9.95852 15.4455 8.86117 17.5099 8.32205C19.5744 7.78292 21.7474 7.82284 23.7907 8.43743C25.3869 8.92719 26.8466 9.7833 28.0532 10.9374C29.2678 9.7291 30.4803 8.51764 31.6907 7.30306C32.3157 6.64993 32.9969 6.02806 33.6125 5.35931C31.7705 3.6453 29.6084 2.31151 27.25 1.43431C22.9554 -0.125099 18.2562 -0.167006 13.9344 1.31556V1.31556Z" fill="white"/>
<path d="M13.9342 1.31561C18.2556 -0.16796 22.9548 -0.127156 27.2498 1.43124C29.6085 2.3144 31.7697 3.65461 33.6092 5.37499C32.9842 6.04374 32.3248 6.66874 31.6873 7.31874C30.4748 8.52915 29.2633 9.7354 28.0529 10.9375C26.8463 9.78336 25.3867 8.92725 23.7904 8.43749C21.7479 7.82074 19.5749 7.77851 17.5099 8.31543C15.4449 8.85235 13.5677 9.94768 12.0842 11.4812C10.7893 12.7985 9.80864 14.3913 9.21543 16.1406L2.7373 11.125C5.05608 6.52674 9.0709 3.00944 13.9342 1.31561V1.31561Z" fill="#E33629"/>
<path d="M1.01884 16.0938C1.36678 14.368 1.94486 12.6969 2.73759 11.125L9.21571 16.1531C8.36849 18.6488 8.36849 21.3543 9.21571 23.85C7.05738 25.5167 4.89801 27.1917 2.73759 28.875C0.753685 24.926 0.148628 20.4266 1.01884 16.0938V16.0938Z" fill="#F8BD00"/>
<path d="M20.3969 16.2969H38.9969C39.6328 19.7873 39.4607 23.377 38.4938 26.7906C37.6039 29.9296 35.8753 32.7667 33.4938 34.9969C31.4031 33.3656 29.3031 31.7469 27.2125 30.1156C28.249 29.4165 29.1337 28.5153 29.8135 27.466C30.4933 26.4168 30.9543 25.2411 31.1688 24.0094H20.3969C20.3938 21.4406 20.3969 18.8687 20.3969 16.2969V16.2969Z" fill="#587DBD"/>
<path d="M2.73438 28.8751C4.89479 27.2084 7.05417 25.5334 9.2125 23.8501C10.0475 26.3007 11.6356 28.4248 13.75 29.9188C15.0686 30.8512 16.5672 31.4984 18.15 31.8188C19.7095 32.1089 21.3092 32.1089 22.8688 31.8188C24.4238 31.556 25.9067 30.9705 27.2219 30.1001C29.3125 31.7313 31.4125 33.3501 33.5031 34.9813C31.2153 37.0617 28.4263 38.5122 25.4094 39.1907C22.0794 39.9736 18.6091 39.936 15.2969 39.0813C12.6772 38.3819 10.2302 37.1488 8.10938 35.4595C5.86477 33.677 4.03136 31.4311 2.73438 28.8751V28.8751Z" fill="#319F43"/>
</svg>
