<svg width="40" height="40" viewBox="0 0 40 40" fill="none" xmlns="http://www.w3.org/2000/svg">
<g clip-path="url(#clip0_461_4312)">
<path d="M7.08334 3.22406e-06H32.9167C33.8471 -0.000896211 34.7686 0.186404 35.6284 0.551183C36.4882 0.915963 37.2694 1.45106 37.9273 2.12585C38.5852 2.80065 39.1069 3.60189 39.4626 4.48372C39.8183 5.36555 40.0009 6.31066 40 7.26496V32.735C40.0009 33.6893 39.8183 34.6345 39.4626 35.5163C39.1069 36.3981 38.5852 37.1994 37.9273 37.8741C37.2694 38.5489 36.4882 39.084 35.6284 39.4488C34.7686 39.8136 33.8471 40.0009 32.9167 40H7.08334C6.15289 40.0009 5.23141 39.8136 4.37162 39.4488C3.51184 39.084 2.73063 38.5489 2.07271 37.8741C1.41478 37.1994 0.893064 36.3981 0.537404 35.5163C0.181743 34.6345 -0.000873806 33.6893 3.14346e-06 32.735V7.26496C-0.000873806 6.31066 0.181743 5.36555 0.537404 4.48372C0.893064 3.60189 1.41478 2.80065 2.07271 2.12585C2.73063 1.45106 3.51184 0.915963 4.37162 0.551183C5.23141 0.186404 6.15289 -0.000896211 7.08334 3.22406e-06V3.22406e-06Z" fill="#F16529"/>
<path d="M13.7999 11.9916H20.0131V7.59961H9L9.10507 8.77789L10.1846 20.8812H20.0131V16.4891H14.2013L13.7999 11.9916V11.9916ZM14.7898 23.0772H10.3809L10.9961 29.9734L19.9929 32.4708L20.0131 32.4653V27.8957L19.9939 27.9008L15.1025 26.5801L14.7898 23.0772V23.0772Z" fill="#EBEBEB"/>
<path d="M19.9979 20.8812H25.4062L24.8963 26.5773L19.9978 27.8994V32.4687L29.0017 29.9734L29.0678 29.2313L30.1 17.6685L30.2071 16.4891H19.9979V20.8812ZM19.9979 11.9809V11.9916H30.6068L30.6948 11.0045L30.895 8.77789L30.9999 7.59961H19.9979V11.981V11.9809Z" fill="white"/>
</g>
<defs>
<clipPath id="clip0_461_4312">
<rect width="40" height="40" fill="white"/>
</clipPath>
</defs>
</svg>
