<svg width="40" height="40" viewBox="0 0 40 40" fill="none" xmlns="http://www.w3.org/2000/svg">
<g clip-path="url(#clip0_461_4273)">
<path d="M7.08334 3.22406e-06H32.9167C33.8471 -0.000896211 34.7686 0.186404 35.6284 0.551183C36.4882 0.915963 37.2694 1.45106 37.9273 2.12585C38.5852 2.80065 39.1069 3.60189 39.4626 4.48372C39.8183 5.36555 40.0009 6.31066 40 7.26496V32.735C40.0009 33.6893 39.8183 34.6345 39.4626 35.5163C39.1069 36.3981 38.5852 37.1994 37.9273 37.8741C37.2694 38.5489 36.4882 39.084 35.6284 39.4488C34.7686 39.8136 33.8471 40.0009 32.9167 40H7.08334C6.15289 40.0009 5.23141 39.8136 4.37162 39.4488C3.51184 39.084 2.73063 38.5489 2.07271 37.8741C1.41478 37.1994 0.893064 36.3981 0.537404 35.5163C0.181743 34.6345 -0.000873806 33.6893 3.14346e-06 32.735V7.26496C-0.000873806 6.31066 0.181743 5.36555 0.537404 4.48372C0.893064 3.60189 1.41478 2.80065 2.07271 2.12585C2.73063 1.45106 3.51184 0.915963 4.37162 0.551183C5.23141 0.186404 6.15289 -0.000896211 7.08334 3.22406e-06V3.22406e-06Z" fill="#F7DF1E"/>
<path d="M26.9379 31.2976C27.7436 32.6132 28.7918 33.5802 30.6458 33.5802C32.2033 33.5802 33.1982 32.8018 33.1982 31.7262C33.1982 30.4373 32.176 29.9808 30.4617 29.231L29.522 28.8278C26.8096 27.6722 25.0077 26.2246 25.0077 23.1643C25.0077 20.3452 27.1557 18.1992 30.5125 18.1992C32.9023 18.1992 34.6204 19.031 35.8585 21.2087L32.9315 23.0881C32.2871 21.9326 31.5918 21.4773 30.5125 21.4773C29.4115 21.4773 28.7138 22.1757 28.7138 23.0881C28.7138 24.2157 29.4122 24.6722 31.0249 25.3706L31.9645 25.7732C35.1582 27.1427 36.9614 28.5389 36.9614 31.6779C36.9614 35.0621 34.303 36.916 30.7328 36.916C27.242 36.916 24.9868 35.2526 23.8833 33.0722L26.9379 31.2976ZM13.6598 31.6233C14.2503 32.671 14.7874 33.5567 16.0788 33.5567C17.3137 33.5567 18.0928 33.0735 18.0928 31.1948V18.4138H21.8515V31.2456C21.8515 35.1376 19.5696 36.9091 16.2388 36.9091C13.2293 36.9091 11.4864 35.3516 10.6001 33.4757L13.6598 31.6233Z" fill="black"/>
</g>
<defs>
<clipPath id="clip0_461_4273">
<rect width="40" height="40" fill="white"/>
</clipPath>
</defs>
</svg>
