<svg width="40" height="40" viewBox="0 0 40 40" fill="none" xmlns="http://www.w3.org/2000/svg">
<g clip-path="url(#clip0_461_4448)">
<path d="M7.08334 3.22406e-06H32.9167C33.8471 -0.000896212 34.7686 0.186404 35.6284 0.551183C36.4882 0.915963 37.2694 1.45106 37.9273 2.12585C38.5852 2.80065 39.1069 3.60189 39.4626 4.48372C39.8183 5.36555 40.0009 6.31066 40 7.26496V32.735C40.0009 33.6893 39.8183 34.6345 39.4626 35.5163C39.1069 36.3981 38.5852 37.1994 37.9273 37.8741C37.2694 38.5489 36.4882 39.084 35.6284 39.4488C34.7686 39.8136 33.8471 40.0009 32.9167 40H7.08334C6.15289 40.0009 5.23141 39.8136 4.37162 39.4488C3.51184 39.084 2.73063 38.5489 2.07271 37.8741C1.41478 37.1994 0.893064 36.3981 0.537404 35.5163C0.181743 34.6345 -0.000873806 33.6893 3.14346e-06 32.735V7.26496C-0.000873806 6.31066 0.181743 5.36555 0.537404 4.48372C0.893064 3.60189 1.41478 2.80065 2.07271 2.12585C2.73063 1.45106 3.51184 0.915963 4.37162 0.551183C5.23141 0.186404 6.15289 -0.000896212 7.08334 3.22406e-06V3.22406e-06Z" fill="#F0F0F0"/>
<path d="M27.8746 29.4152H27.7539V29.3477H28.0788V29.4152H27.9589V29.752H27.8746V29.4152ZM28.5226 29.4328H28.5207L28.4011 29.7521H28.3464L28.2276 29.4328H28.2261V29.7521H28.1467V29.3477H28.2636L28.3738 29.6341L28.4836 29.3477H28.6001V29.7521H28.5226V29.4328H28.5226Z" fill="#E76F00"/>
<path d="M17.0709 21.1465C17.0709 21.1465 16.2312 21.6348 17.6684 21.8C19.4096 21.9986 20.2994 21.9702 22.2182 21.607C22.2182 21.607 22.7227 21.9233 23.4272 22.1973C19.1258 24.0408 13.6924 22.0905 17.0709 21.1465Z" fill="#5382A1"/>
<path d="M16.5454 18.7402C16.5454 18.7402 15.6036 19.4373 17.0419 19.5861C18.9018 19.778 20.3707 19.7937 22.9123 19.3043C22.9123 19.3043 23.2639 19.6607 23.8167 19.8556C18.6161 21.3763 12.8236 19.9755 16.5454 18.7402Z" fill="#5382A1"/>
<path d="M20.9763 14.6609C22.0361 15.8811 20.6978 16.9792 20.6978 16.9792C20.6978 16.9792 23.3889 15.5899 22.153 13.8503C20.9987 12.2279 20.1135 11.4218 24.9056 8.64258C24.9056 8.64258 17.3836 10.5212 20.9763 14.6609Z" fill="#E76F00"/>
<path d="M26.6651 22.9261C26.6651 22.9261 27.2865 23.4381 25.9808 23.8341C23.498 24.5863 15.6471 24.8134 13.4662 23.8641C12.6822 23.523 14.1524 23.0497 14.6149 22.9504C15.0972 22.8458 15.3728 22.8653 15.3728 22.8653C14.5009 22.2511 9.73737 24.0713 12.9532 24.5926C21.7231 26.0148 28.9399 23.9522 26.6651 22.9261Z" fill="#5382A1"/>
<path d="M17.4747 16.2477C17.4747 16.2477 13.4813 17.1962 16.0605 17.5407C17.1496 17.6865 19.3206 17.6535 21.3428 17.484C22.9954 17.3446 24.6549 17.0482 24.6549 17.0482C24.6549 17.0482 24.0722 17.2978 23.6506 17.5857C19.5953 18.6522 11.7613 18.156 14.0166 17.0651C15.9239 16.1431 17.4747 16.2477 17.4747 16.2477Z" fill="#5382A1"/>
<path d="M24.6385 20.2537C28.7609 18.1115 26.8549 16.0529 25.5245 16.3303C25.1984 16.3982 25.053 16.457 25.053 16.457C25.053 16.457 25.1741 16.2673 25.4053 16.1852C28.0372 15.26 30.0613 18.9143 24.5557 20.3616C24.5557 20.3617 24.6194 20.3047 24.6385 20.2537Z" fill="#5382A1"/>
<path d="M22.1531 4.1543C22.1531 4.1543 24.4361 6.4381 19.9877 9.94994C16.4206 12.767 19.1743 14.3733 19.9863 16.2085C17.904 14.3298 16.376 12.676 17.4011 11.1368C18.9058 8.87742 23.0742 7.78198 22.1531 4.1543Z" fill="#E76F00"/>
<path d="M17.8798 26.0578C21.8368 26.3111 27.9132 25.9172 28.0571 24.0449C28.0571 24.0449 27.7804 24.7547 24.7869 25.3184C21.4095 25.954 17.244 25.8798 14.7734 25.4724C14.7735 25.4724 15.2792 25.891 17.8798 26.0578Z" fill="#5382A1"/>
<path d="M17.2314 33.2125C16.8581 33.5362 16.4638 33.718 16.1101 33.718C15.6051 33.718 15.3322 33.4152 15.3322 32.9295C15.3322 32.4041 15.6245 32.02 16.7973 32.02H17.2313V33.2125H17.2314ZM18.2614 34.3746V30.7773C18.2614 29.8583 17.7373 29.252 16.4736 29.252C15.7358 29.252 15.0896 29.4341 14.5643 29.6665L14.716 30.3032C15.1295 30.1514 15.6648 30.0101 16.1902 30.0101C16.9182 30.0101 17.2314 30.3032 17.2314 30.9092V31.3638H16.868C15.0994 31.3638 14.3015 32.0504 14.3015 33.0809C14.3015 33.9703 14.8273 34.4758 15.8173 34.4758C16.4536 34.4758 16.9286 34.2131 17.3727 33.8286L17.4533 34.3746H18.2614V34.3746Z" fill="#E76F00"/>
<path d="M21.6989 34.3734H20.4142L18.8682 29.3418H19.99L20.9494 32.4332L21.1626 33.363C21.648 32.0187 21.9912 30.6549 22.1629 29.3418H23.2542C22.9618 30.9987 22.4357 32.8173 21.6989 34.3734Z" fill="#E76F00"/>
<path d="M26.6269 33.2125C26.2529 33.5362 25.858 33.718 25.5042 33.718C25.0001 33.718 24.7265 33.4152 24.7265 32.9295C24.7265 32.4041 25.0196 32.02 26.1922 32.02H26.6269V33.2125ZM27.6568 34.3746V30.7773C27.6568 29.8583 27.1314 29.252 25.8692 29.252C25.1309 29.252 24.4844 29.4341 23.9594 29.6665L24.1108 30.3032C24.5245 30.1514 25.0608 30.0101 25.5858 30.0101C26.3133 30.0101 26.6269 30.3032 26.6269 30.9092V31.3638H26.263C24.4938 31.3638 23.6963 32.0504 23.6963 33.0809C23.6963 33.9703 24.2217 34.4758 25.2114 34.4758C25.8481 34.4758 26.323 34.2131 26.7678 33.8286L26.8487 34.3746H27.6568V34.3746Z" fill="#E76F00"/>
<path d="M13.1721 35.2282C12.8785 35.6569 12.4042 35.996 11.885 36.1879L11.3765 35.5895C11.7717 35.3867 12.1106 35.0592 12.2681 34.7541C12.4043 34.4828 12.4607 34.1332 12.4607 33.297V27.5527H13.555V33.2183C13.5549 34.3362 13.4655 34.7878 13.1721 35.2282Z" fill="#E76F00"/>
</g>
<defs>
<clipPath id="clip0_461_4448">
<rect width="40" height="40" fill="white"/>
</clipPath>
</defs>
</svg>
