<svg width="40" height="40" viewBox="0 0 40 40" fill="none" xmlns="http://www.w3.org/2000/svg">
<path d="M39.2117 38.3699L38.3942 37.5771C37.6195 36.5483 36.6229 35.6446 35.577 34.8943C34.7429 34.2955 32.8704 33.4868 32.5223 32.5165L32.4582 32.4555C33.0498 32.3886 33.7404 32.1749 34.2863 32.0283C35.2032 31.7827 35.9601 31.8461 36.907 31.6018C37.3338 31.4799 37.8129 31.3577 38.1254 31.2358V30.9921C37.8129 30.5011 37.367 29.8511 36.8451 29.4068C35.4798 28.2443 34.0198 27.0827 32.4854 26.114C31.6345 25.5771 30.5976 25.228 29.696 24.7727C29.3926 24.6193 28.8673 24.5396 28.6667 24.2846C28.1926 23.6808 27.9392 22.9152 27.5735 22.2118C26.8082 20.7377 26.0582 19.128 25.3801 17.5771C24.9176 16.5196 24.6167 15.4771 24.0398 14.5283C21.271 9.97614 18.2913 7.22895 13.6751 4.52832C12.6923 3.95395 11.5098 3.72738 10.2598 3.43051C9.58978 3.3902 8.91884 3.34926 8.24821 3.30832C7.83853 3.1377 7.41259 2.63676 7.02884 2.39363C5.49884 1.42738 1.57603 -0.674179 0.443215 2.08895C-0.272097 3.83301 1.51197 5.53426 2.15009 6.41832C2.59853 7.0377 3.17197 7.73301 3.49165 8.4302C3.70259 8.88864 3.73853 9.34832 3.91884 9.83301C4.36197 11.0274 4.74728 12.3268 5.32103 13.4302C5.61072 13.9889 5.93009 14.5771 6.29665 15.0764C6.52103 15.383 6.90603 15.518 6.96697 15.9911C6.59072 16.518 6.56915 17.3361 6.35759 18.0036C5.40447 21.0083 5.76447 24.7433 7.1504 26.9671C7.5754 27.6502 8.57728 29.1143 9.95509 28.5524C11.1601 28.0618 10.9632 26.5405 11.3079 25.1986C11.3857 24.8949 11.2501 24.6711 11.5626 24.4671V24.528C11.8823 25.2698 12.2244 26.0018 12.5882 26.723C13.4007 28.0315 14.741 29.3986 15.9626 30.3211C16.596 30.7996 17.1876 31.6264 17.8126 31.9064V31.8749H17.8817C17.7232 31.5624 17.4748 31.5102 17.2723 31.3111C16.7951 30.8436 16.2642 30.2543 15.8701 29.7183C14.7588 28.2099 13.777 26.5552 12.8823 24.8364C12.4548 24.0158 12.0832 23.1086 11.7232 22.2736C11.5848 21.9518 11.5863 21.4636 11.297 21.2971C10.9023 21.9089 10.3213 22.4033 10.016 23.1261C9.52821 24.2811 9.4654 25.6899 9.28446 27.1502C9.17728 27.1883 9.22509 27.1621 9.16228 27.2108C8.3129 27.0061 8.01478 26.1321 7.69884 25.3818C6.9004 23.4849 6.75228 20.4308 7.45478 18.2477C7.63665 17.6824 8.45822 15.9036 8.1254 15.3814C7.96665 14.8611 7.4429 14.5596 7.15009 14.1618C6.78728 13.6699 6.4254 13.0224 6.17415 12.4543C5.52072 10.9758 5.21603 9.31551 4.5279 7.82051C4.19884 7.10582 3.6429 6.38239 3.18634 5.74739C2.68103 5.04332 2.11478 4.52488 1.72259 3.67395C1.58353 3.37145 1.39415 2.88707 1.60072 2.57613C1.66634 2.36645 1.75915 2.27895 1.96665 2.21051C2.32072 1.9377 3.30509 2.30113 3.67384 2.45395C4.65165 2.8602 5.4679 3.2352 6.29634 3.78395C6.69353 4.0477 7.09603 4.37457 7.57665 4.68707H8.1254C8.98384 4.68707 9.9454 4.75957 10.7476 5.00332C12.1648 5.43426 13.4351 6.1102 14.5888 6.83863C18.1032 9.05801 20.9767 12.2199 22.9426 15.988C23.2588 16.5949 23.3957 17.1752 23.6742 17.8186C24.236 19.1164 24.9442 20.4524 25.5032 21.7215C26.0613 22.988 26.6051 24.2658 27.3938 25.3196C27.8085 25.8733 29.4098 26.1708 30.1376 26.4786C30.6479 26.694 31.4838 26.9189 31.967 27.2099C32.8898 27.7668 33.7838 28.4299 34.6501 29.0396C35.0826 29.344 36.4126 30.0127 36.4792 30.564C34.3345 30.5052 32.6967 30.7052 31.2963 31.2955C30.8985 31.4633 30.2635 31.468 30.1985 31.9665C30.4173 32.1955 30.4513 32.538 30.6251 32.8199C30.9592 33.3605 31.5238 34.0861 32.0276 34.4661C32.5782 34.8818 33.1451 35.3258 33.7351 35.6855C34.7848 36.3252 35.956 36.6908 36.9667 37.3318C37.5623 37.7099 38.2035 38.1858 38.7838 38.6121C39.0713 38.823 39.0623 39.1508 39.6873 39.283V39.2224C39.3751 38.974 39.3917 38.6308 39.2117 38.3699V38.3699ZM9.22322 7.33301C8.77603 7.32457 8.43759 7.38207 8.12509 7.45457V7.5002H8.18697C8.4004 7.8127 8.77697 8.22832 9.0404 8.60582L9.6504 9.88957L9.71072 9.83114C10.0885 9.56457 10.2617 9.1402 10.2595 8.4902C10.1085 8.33113 10.0857 8.13207 9.95509 7.94207C9.78072 7.68926 9.4429 7.54582 9.22322 7.33301V7.33301Z" fill="#00618A"/>
</svg>
