<svg width="40" height="40" viewBox="0 0 40 40" fill="none" xmlns="http://www.w3.org/2000/svg">
<path fill-rule="evenodd" clip-rule="evenodd" d="M15.8537 13.6784L6.41406 30.1338L4.21031 26.3734L6.75406 21.9662L1.70188 21.9531L0.625 20.0741L1.72469 18.1522L8.91625 18.175L11.5006 13.69L15.8537 13.6784V13.6784ZM16.5781 26.8328L35.4559 26.8337L33.3225 30.635L28.2584 30.6209L30.7731 35.0319L29.695 36.91L27.4919 36.9125L23.9153 30.6322L18.7644 30.6216L16.5781 26.8328V26.8328ZM27.5656 19.6222L18.1275 3.16594L22.465 3.125L24.9847 7.54625L27.5222 3.14875L29.6775 3.14938L30.7812 5.06906L27.1656 11.3266L29.7322 15.8222L27.5656 19.6222V19.6222Z" fill="#7EBAE4"/>
<path fill-rule="evenodd" clip-rule="evenodd" d="M12.4471 20.4572L21.8852 36.9134L17.5477 36.9544L15.028 32.5331L12.4905 36.9306L10.3352 36.93L9.23143 35.0103L12.8471 28.7528L10.2805 24.2572L12.4471 20.4572V20.4572ZM23.4096 13.205L4.53174 13.2041L6.66549 9.40313L11.7292 9.41719L9.21455 5.00625L10.2927 3.12813L12.4961 3.125L16.0724 9.40531L21.2236 9.41594L23.4099 13.2047L23.4096 13.205ZM24.1461 26.3975L33.5858 9.94188L35.7896 13.7025L33.2455 18.1094L38.298 18.1228L39.3749 20.0019L38.2752 21.9238L31.0836 21.9009L28.4992 26.3859L24.1461 26.3975V26.3975Z" fill="#5277C3"/>
</svg>
