<svg width="40" height="40" viewBox="0 0 40 40" fill="none" xmlns="http://www.w3.org/2000/svg">
<path d="M7.08334 3.22406e-06H32.9167C33.8471 -0.000896211 34.7686 0.186404 35.6284 0.551183C36.4882 0.915963 37.2694 1.45106 37.9273 2.12585C38.5852 2.80065 39.1069 3.60189 39.4626 4.48372C39.8183 5.36555 40.0009 6.31066 40 7.26496V32.735C40.0009 33.6893 39.8183 34.6345 39.4626 35.5163C39.1069 36.3981 38.5852 37.1994 37.9273 37.8741C37.2694 38.5489 36.4882 39.084 35.6284 39.4488C34.7686 39.8136 33.8471 40.0009 32.9167 40H7.08334C6.15289 40.0009 5.23141 39.8136 4.37162 39.4488C3.51184 39.084 2.73063 38.5489 2.07271 37.8741C1.41478 37.1994 0.893064 36.3981 0.537404 35.5163C0.181743 34.6345 -0.000873806 33.6893 3.14346e-06 32.735V7.26496C-0.000873806 6.31066 0.181743 5.36555 0.537404 4.48372C0.893064 3.60189 1.41478 2.80065 2.07271 2.12585C2.73063 1.45106 3.51184 0.915963 4.37162 0.551183C5.23141 0.186404 6.15289 -0.000896211 7.08334 3.22406e-06V3.22406e-06Z" fill="#F0F0F0"/>
<path d="M19.9112 35C19.5094 35 19.1104 34.8946 18.7582 34.6918L15.0883 32.5191C14.5401 32.2125 14.8076 32.1041 14.9884 32.0416C15.7192 31.7857 15.8676 31.728 16.6477 31.2849C16.7297 31.2381 16.837 31.2547 16.9209 31.3042L19.7403 32.9772C19.8421 33.0323 19.9866 33.0323 20.081 32.9772L31.074 26.6318C31.1758 26.574 31.2419 26.4557 31.2419 26.3346V13.6493C31.2419 13.5227 31.1758 13.4099 31.0718 13.3466L20.0832 7.00668C19.9813 6.94614 19.8465 6.94614 19.7447 7.00668L8.75826 13.3466C8.65177 13.4071 8.58408 13.5255 8.58408 13.6465V26.3319C8.58408 26.4529 8.65012 26.5685 8.75468 26.6263L11.765 28.3654C13.3996 29.1826 14.3984 28.2195 14.3984 27.2509V14.7307C14.3984 14.5518 14.5388 14.4143 14.7176 14.4143H16.11C16.2833 14.4143 16.4264 14.5518 16.4264 14.7307V27.2564C16.4264 29.4358 15.2377 30.6878 13.1712 30.6878C12.5355 30.6878 12.0347 30.6878 10.6368 29.9999L7.75306 28.3379C7.04037 27.9251 6.6001 27.1546 6.6001 26.3319V13.6465C6.6001 12.821 7.04037 12.0505 7.75306 11.6433L18.7571 5.29512C19.4533 4.90163 20.3779 4.90163 21.0685 5.29512L32.0588 11.646C32.7688 12.056 33.2118 12.8238 33.2118 13.6493V26.3346C33.2118 27.1574 32.7688 27.9251 32.0588 28.3379L21.0685 34.686C20.7163 34.8897 20.3173 34.9942 19.9101 34.9942" fill="#689F63"/>
<path d="M23.3068 26.2583C18.4968 26.2583 17.4883 24.0504 17.4883 22.1985C17.4883 22.0224 17.6303 21.882 17.8067 21.882H19.2265C19.3834 21.882 19.5155 21.9962 19.5402 22.1511C19.7549 23.598 20.3933 24.3277 23.3018 24.3277C25.6187 24.3277 26.6038 23.8044 26.6038 22.5757C26.6038 21.8685 26.3232 21.343 22.7239 20.9908C19.7136 20.6936 17.8534 20.0304 17.8534 17.6227C17.8534 15.4048 19.7246 14.084 22.8588 14.084C26.3782 14.084 28.1228 15.3057 28.3429 17.9309C28.3512 18.0217 28.3182 18.1097 28.2576 18.1758C28.1971 18.2391 28.1118 18.2776 28.0237 18.2776H26.5956C26.447 18.2776 26.3177 18.173 26.2874 18.0299C25.9434 16.5082 25.1124 16.0212 22.8533 16.0212C20.3245 16.0212 20.03 16.9017 20.03 17.5621C20.03 18.3629 20.3767 18.5968 23.7889 19.0481C27.1679 19.4966 28.7722 20.1295 28.7722 22.5042C28.7722 24.8982 26.7744 26.2713 23.2908 26.2713L23.3068 26.2583Z" fill="#689F63"/>
</svg>
