<svg width="40" height="40" viewBox="0 0 40 40" fill="none" xmlns="http://www.w3.org/2000/svg">
<path fill-rule="evenodd" clip-rule="evenodd" d="M8.50508 6.34497C8.77508 6.46372 9.06977 6.4456 9.35195 6.47997C11.5032 6.7406 13.2479 7.77872 14.7626 9.26997C16.0001 10.4884 17.0701 11.8543 18.2035 13.1643C19.1316 14.2375 20.126 15.2356 21.3323 16.0003C22.6054 16.8062 23.9891 17.255 25.4995 17.2934C25.5535 17.2947 25.6063 17.2972 25.6598 17.3006C25.6645 17.3009 25.6679 17.3137 25.6851 17.3453C25.1232 17.7353 24.5126 18.0225 23.8457 18.1797C22.3382 18.5347 20.976 18.2347 19.7832 17.2322C19.4501 16.9522 19.1295 16.6556 18.7882 16.3859C18.2535 15.9622 17.6435 15.7409 16.9541 15.8231C15.9863 15.939 15.4598 16.6712 15.6848 17.6231C16.0363 19.1097 16.8888 20.274 18.0804 21.204C19.3657 22.2072 20.841 22.7534 22.4423 22.9793C24.0307 23.2028 25.6123 23.2003 27.1666 22.7328C27.2682 22.7018 27.3679 22.6906 27.4182 22.8043C27.4654 22.9131 27.3476 22.9328 27.2945 22.9762C26.9282 23.2718 26.5651 23.5712 26.187 23.8522C24.8198 24.8656 23.2838 25.4503 21.5888 25.5747C20.3607 25.664 19.2888 25.2362 18.3388 24.474C17.5901 23.8743 17.007 23.1203 16.392 22.3959C15.8798 21.7931 15.3723 21.1868 14.8563 20.5878C14.537 20.2168 14.1951 19.8675 13.7904 19.5856C13.1526 19.1428 12.4541 18.9922 11.6898 19.1453C10.6482 19.354 10.0798 20.2168 10.3601 21.2478C10.9682 23.4831 12.3882 24.8765 14.6866 25.3312C14.7516 25.344 14.8323 25.3203 14.8838 25.4187C13.6973 25.6612 12.5357 25.6003 11.3963 25.2265C9.0982 24.4718 7.24352 23.1581 6.11445 20.9578C5.40883 19.5834 5.1107 18.104 5.03789 16.5715C4.99102 15.5868 5.02789 14.5965 4.87539 13.6187C4.69477 12.4637 4.41758 11.3387 3.74539 10.3525C2.98789 9.24059 1.94477 8.67278 0.590078 8.70028C0.430703 8.70341 0.271016 8.70091 0.106953 8.70091C0.105391 8.58997 0.196953 8.56872 0.253203 8.52653C1.3807 7.68153 2.68414 7.22185 4.01539 6.83028C4.76633 6.60935 5.53664 6.47997 6.31508 6.39935C6.37164 6.39341 6.44352 6.42091 6.47789 6.34497H8.50508V6.34497ZM4.70039 7.99466C4.98945 8.30028 5.29383 8.51247 5.68602 8.57091C6.16633 8.64247 6.6632 8.37966 6.82664 7.9756C6.9407 7.69435 6.92695 7.67497 6.6332 7.6981C6.47445 7.71028 6.31508 7.7181 6.15664 7.73591C5.67633 7.78903 5.19695 7.84903 4.70039 7.99466V7.99466Z" fill="#F05323"/>
<path fill-rule="evenodd" clip-rule="evenodd" d="M39.9758 25.0682C39.6283 25.2079 39.3045 25.4032 38.9208 25.4588C37.9942 25.5932 37.1564 25.4219 36.4452 24.7816C36.3133 24.6632 36.1789 24.5454 36.0605 24.4147C35.4786 23.7744 34.7586 23.4182 33.8977 23.3419C33.8302 23.336 33.763 23.3169 33.6861 23.3026C34.522 22.5644 35.9671 22.421 37.0214 22.9588C37.4558 23.1807 37.8196 23.4897 38.1449 23.8435C38.6536 24.3972 39.2542 24.7985 39.9758 25.0138V25.0682V25.0682ZM26.1071 33.6554C26.0086 33.5519 25.8664 33.566 25.7455 33.526C25.0474 33.2947 24.4599 32.9013 23.958 32.3672C22.9927 31.3391 22.5286 31.026 21.2733 30.5316C21.3086 30.4519 21.3814 30.461 21.4489 30.4594C22.0636 30.4419 22.6727 30.4854 23.2708 30.6347C24.3836 30.9135 25.2405 31.5476 25.8146 32.5397C26.0421 32.9329 26.3058 33.2754 26.6936 33.5147C26.7477 33.5485 26.7958 33.5857 26.8011 33.6557L26.1071 33.6554V33.6554ZM24.3408 30.1044C23.9567 30.006 23.598 29.9194 23.2427 29.821C22.0774 29.4991 20.903 29.5738 19.7264 29.7335C19.1199 29.8154 18.5146 29.9094 17.9055 29.9722C16.0499 30.1638 14.3277 29.7197 12.7155 28.8207C11.1086 27.9244 9.68361 26.8097 8.60018 25.2988C8.51768 25.1835 8.44018 25.0647 8.36174 24.9463C8.33736 24.9097 8.31705 24.8704 8.28955 24.8232C8.42018 24.7669 8.49611 24.8676 8.57861 24.9129C9.43986 25.3882 10.2839 25.8944 11.2252 26.2085C12.8867 26.7626 14.5305 26.7801 16.1677 26.1107C16.9567 25.7879 17.7527 25.7397 18.5327 26.1551C18.6055 26.1938 18.7024 26.2107 18.738 26.3157C18.3939 26.4072 18.053 26.4891 17.7177 26.5901C17.4239 26.6785 17.1758 26.8288 17.1508 27.1801C17.1296 27.4732 17.2921 27.686 17.6633 27.8472C18.4189 28.1747 19.2195 28.2572 20.0317 28.2697C20.9627 28.2841 21.8696 28.4122 22.7292 28.796C23.2205 29.0154 23.6536 29.3213 24.0699 29.6541C24.203 29.7604 24.3014 29.8913 24.3408 30.1044V30.1044ZM34.443 17.9294C34.3658 17.7666 34.3214 17.6713 34.2758 17.5772C33.5461 16.0644 32.3208 15.4935 30.6986 15.9316C29.9549 16.1326 29.2305 16.4179 28.4602 16.5041C24.7761 16.9179 21.5861 15.9732 19.1155 13.0754C19.0471 12.9947 18.8917 12.8782 18.9608 12.806C19.0786 12.6826 19.1702 12.8707 19.2574 12.9319C21.1467 14.2685 23.2352 14.8951 25.553 14.7135C26.5949 14.6313 27.5917 14.346 28.5883 14.0504C29.4692 13.7891 30.3617 13.606 31.2902 13.7951C33.3067 14.2054 34.5436 15.7901 34.443 17.9294V17.9294ZM25.2061 25.8172C25.2414 25.8019 25.2639 25.7894 25.288 25.7822C26.2005 25.5029 26.9086 24.921 27.5592 24.2532C28.1971 23.5991 28.7924 22.9026 29.4842 22.2997C30.9542 21.0185 32.6405 20.6429 34.5211 21.0685C34.9905 21.1747 35.3802 21.3994 35.7233 21.7176C35.3499 21.6888 35.0192 21.6804 34.6924 21.6357C34.0289 21.5444 33.4889 21.7691 33.0408 22.2441C32.681 22.6249 32.3253 23.0096 31.9739 23.3982C30.6911 24.8182 29.0527 25.5157 27.1902 25.7597C26.6258 25.8332 26.0614 25.8897 25.4908 25.8738C25.4089 25.8722 25.3186 25.9016 25.2061 25.8172V25.8172ZM33.6283 20.0594C33.3036 20.1288 33.0596 20.0182 32.8158 19.9788C31.2989 19.7335 29.903 19.9757 28.5864 20.8135C26.587 22.0854 24.4074 22.2947 22.1336 21.7376C21.8596 21.6701 21.5846 21.5735 21.3027 21.3504C21.6221 21.3319 21.8671 21.4041 22.1136 21.4401C23.2636 21.6082 24.2927 21.2935 25.2424 20.6641C26.0139 20.1529 26.8121 19.6901 27.6896 19.3872C29.3952 18.8007 31.093 18.7132 32.7642 19.5201C33.0511 19.6579 33.3267 19.8157 33.6283 20.0594V20.0594Z" fill="#F15524"/>
<path fill-rule="evenodd" clip-rule="evenodd" d="M26.3483 12.966C25.448 13.4814 24.5383 13.5914 23.5924 13.5273C20.8924 13.3451 18.7493 12.0498 16.8896 10.1842C16.833 10.1276 16.7565 10.0639 16.7874 9.98167C16.823 9.88386 16.9274 9.93542 16.9986 9.93573C18.8008 9.93855 20.4536 10.3907 21.868 11.5614C22.1621 11.8045 22.4686 12.0329 22.774 12.262C23.7055 12.961 24.7443 13.2064 25.8899 12.9857C26.0211 12.961 26.1515 12.9495 26.3483 12.966V12.966Z" fill="#F15524"/>
</svg>
