<svg width="40" height="40" viewBox="0 0 40 40" fill="none" xmlns="http://www.w3.org/2000/svg">
<g clip-path="url(#clip0_461_4433)">
<path d="M7.08334 3.22406e-06H32.9167C33.8471 -0.000896212 34.7686 0.186404 35.6284 0.551183C36.4882 0.915963 37.2694 1.45106 37.9273 2.12585C38.5852 2.80065 39.1069 3.60189 39.4626 4.48372C39.8183 5.36555 40.0009 6.31066 40 7.26496V32.735C40.0009 33.6893 39.8183 34.6345 39.4626 35.5163C39.1069 36.3981 38.5852 37.1994 37.9273 37.8741C37.2694 38.5489 36.4882 39.084 35.6284 39.4488C34.7686 39.8136 33.8471 40.0009 32.9167 40H7.08334C6.15289 40.0009 5.23141 39.8136 4.37162 39.4488C3.51184 39.084 2.73063 38.5489 2.07271 37.8741C1.41478 37.1994 0.893064 36.3981 0.537404 35.5163C0.181743 34.6345 -0.000873806 33.6893 3.14346e-06 32.735V7.26496C-0.000873806 6.31066 0.181743 5.36555 0.537404 4.48372C0.893064 3.60189 1.41478 2.80065 2.07271 2.12585C2.73063 1.45106 3.51184 0.915963 4.37162 0.551183C5.23141 0.186404 6.15289 -0.000896212 7.08334 3.22406e-06V3.22406e-06Z" fill="#777BB3"/>
<path d="M9.43577 22.3374C10.4084 22.3374 11.1344 22.158 11.5938 21.8044C12.0483 21.4545 12.3622 20.8482 12.5268 20.0025C12.6802 19.212 12.6217 18.6601 12.3531 18.3622C12.0785 18.058 11.4847 17.9037 10.5883 17.9037H9.03399L8.17233 22.3374H9.43577ZM4.35212 27.7988C4.27997 27.7988 4.21145 27.7666 4.16559 27.7108C4.11964 27.6551 4.10101 27.5817 4.1148 27.5109L6.39838 15.7616C6.42047 15.648 6.52002 15.5659 6.63578 15.5659H11.5575C13.1043 15.5659 14.2556 15.9859 14.9792 16.8144C15.7067 17.6472 15.9314 18.8113 15.6469 20.2743C15.5312 20.8704 15.3321 21.4239 15.0552 21.9195C14.7779 22.4157 14.4116 22.8748 13.966 23.2843C13.4327 23.7835 12.8291 24.1454 12.1735 24.3584C11.5284 24.5685 10.6998 24.6751 9.71098 24.6751H7.71808L7.14896 27.6031C7.12687 27.7168 7.0274 27.7988 6.91164 27.7988H4.35212Z" fill="black"/>
<path d="M9.2335 18.1459H10.5884C11.6703 18.1459 12.0461 18.3833 12.1738 18.5248C12.3857 18.7597 12.4257 19.2549 12.2895 19.957C12.1365 20.743 11.8529 21.3002 11.4465 21.6132C11.0303 21.9335 10.3538 22.0959 9.43592 22.0959H8.46583L9.2335 18.1459ZM11.5576 15.3244H6.63585C6.40434 15.3244 6.20531 15.4886 6.16113 15.7158L3.87755 27.4651C3.84998 27.6069 3.88722 27.7536 3.97904 27.865C4.07094 27.9765 4.20782 28.041 4.35227 28.041H6.91171C7.14331 28.041 7.34234 27.8769 7.38651 27.6496L7.91759 24.9173H9.71113C10.7254 24.9173 11.5792 24.8067 12.2487 24.5886C12.9372 24.3649 13.5707 23.9857 14.1313 23.4614C14.595 23.0348 14.977 22.5559 15.2664 22.038C15.5558 21.5199 15.7638 20.9421 15.8845 20.3208C16.184 18.7808 15.9407 17.5476 15.1615 16.6557C14.3899 15.7723 13.1773 15.3244 11.5576 15.3244ZM7.87906 22.5795H9.43592C10.4678 22.5795 11.2365 22.3852 11.7415 21.9964C12.2466 21.6075 12.5873 20.9585 12.7643 20.049C12.9337 19.1759 12.8565 18.5597 12.5329 18.2007C12.2088 17.8417 11.5608 17.6622 10.5884 17.6622H8.83479L7.87906 22.5795V22.5795ZM11.5576 15.8081C13.0382 15.8081 14.1184 16.1967 14.7973 16.9739C15.4761 17.751 15.6805 18.8358 15.4097 20.2286C15.2982 20.8023 15.1096 21.3268 14.8442 21.802C14.5784 22.2776 14.2314 22.7124 13.8025 23.1067C13.2914 23.5849 12.7237 23.9258 12.0989 24.1287C11.4742 24.3323 10.6785 24.4336 9.71113 24.4336H7.5188L6.91171 27.5573H4.35227L6.63585 15.8081H11.5576" fill="white"/>
<path d="M21.5153 24.6758C21.4431 24.6758 21.3746 24.6435 21.3288 24.5878C21.2827 24.532 21.2641 24.4588 21.2779 24.3878L22.2881 19.1892C22.3841 18.6948 22.3604 18.34 22.2214 18.19C22.1363 18.0984 21.8806 17.9447 21.1245 17.9447H19.2944L18.0244 24.4801C18.0023 24.5937 17.9028 24.6758 17.787 24.6758H15.2477C15.1755 24.6758 15.107 24.6435 15.0611 24.5878C15.0151 24.532 14.9965 24.4587 15.0103 24.3878L17.2939 12.6385C17.316 12.525 17.4155 12.4429 17.5313 12.4429H20.0706C20.1428 12.4429 20.2112 12.4751 20.2572 12.5308C20.3031 12.5866 20.3218 12.6599 20.308 12.7308L19.7569 15.5666H21.7256C23.2254 15.5666 24.2424 15.831 24.8348 16.375C25.4385 16.9299 25.6269 17.8172 25.3948 19.0125L24.3323 24.4801C24.3102 24.5937 24.2107 24.6758 24.0949 24.6758H21.5153Z" fill="black"/>
<path d="M20.0707 12.2014H17.5314C17.2998 12.2014 17.1008 12.3655 17.0566 12.5928L14.7731 24.3421C14.7455 24.4839 14.7827 24.6305 14.8746 24.742C14.9665 24.8535 15.1034 24.918 15.2479 24.918H17.7871C18.0187 24.918 18.2178 24.7538 18.2619 24.5266L19.4939 18.1869H21.1246C21.8794 18.1869 22.0378 18.3481 22.0442 18.355C22.09 18.4043 22.1502 18.6324 22.0508 19.1435L21.0406 24.3421C21.0131 24.4839 21.0503 24.6305 21.1422 24.742C21.2341 24.8535 21.371 24.918 21.5155 24.918H24.095C24.3266 24.918 24.5257 24.7538 24.5698 24.5266L25.6322 19.0591C25.8816 17.7757 25.6683 16.8129 24.9985 16.1973C24.3595 15.6104 23.2889 15.3251 21.7258 15.3251H20.0503L20.5455 12.7774C20.573 12.6356 20.5359 12.4889 20.444 12.3775C20.3521 12.266 20.2152 12.2014 20.0707 12.2014ZM20.0707 12.6851L19.4636 15.8088H21.7258C23.1491 15.8088 24.1309 16.0572 24.6713 16.5535C25.2116 17.0501 25.3735 17.8547 25.1575 18.9669L24.095 24.4343H21.5155L22.5256 19.2358C22.6406 18.6444 22.5983 18.241 22.3987 18.026C22.199 17.8109 21.7743 17.7032 21.1246 17.7032H19.0952L17.7871 24.4343H15.2479L17.5314 12.6851H20.0707Z" fill="white"/>
<path d="M29.4128 22.3374C30.3854 22.3374 31.1115 22.158 31.5709 21.8044C32.0254 21.4546 32.3393 20.8483 32.5039 20.0025C32.6573 19.212 32.5988 18.6601 32.3302 18.3622C32.0555 18.058 31.4617 17.9037 30.5653 17.9037H29.011L28.1494 22.3374H29.4128ZM24.3292 27.7988C24.2571 27.7988 24.1886 27.7666 24.1427 27.7108C24.0968 27.6551 24.0781 27.5817 24.0918 27.5109L26.3754 15.7616C26.3976 15.648 26.4971 15.5659 26.6129 15.5659H31.5345C33.0814 15.5659 34.2326 15.9859 34.9563 16.8144C35.6839 17.6471 35.9085 18.8112 35.6241 20.2743C35.5081 20.8704 35.3091 21.4239 35.0322 21.9195C34.755 22.4157 34.3886 22.8748 33.943 23.2843C33.4097 23.7835 32.8061 24.1454 32.1506 24.3584C31.5054 24.5685 30.6769 24.6751 29.688 24.6751H27.695L27.1262 27.6031C27.104 27.7168 27.0045 27.7988 26.8887 27.7988H24.3292Z" fill="black"/>
<path d="M29.2105 18.1459H30.5654C31.6473 18.1459 32.0231 18.3833 32.1508 18.5248C32.3627 18.7597 32.4027 19.2549 32.2665 19.9569C32.1135 20.743 31.8298 21.3002 31.4234 21.6132C31.0073 21.9335 30.3308 22.0959 29.4129 22.0959H28.4429L29.2105 18.1459ZM31.5346 15.3244H26.6129C26.3814 15.3244 26.1824 15.4886 26.1382 15.7158L23.8546 27.4651C23.827 27.6069 23.8643 27.7536 23.9561 27.865C24.048 27.9765 24.1849 28.041 24.3293 28.041H26.8888C27.1203 28.041 27.3194 27.8769 27.3636 27.6496L27.8946 24.9173H29.6881C30.7024 24.9173 31.5562 24.8067 32.2257 24.5886C32.9142 24.3649 33.5478 23.9856 34.1085 23.4612C34.5721 23.0347 34.9539 22.5559 35.2433 22.038C35.5328 21.5199 35.7408 20.9421 35.8615 20.3208C36.1609 18.7807 35.9176 17.5475 35.1384 16.6556C34.3668 15.7723 33.1543 15.3244 31.5346 15.3244ZM27.8561 22.5795H29.4129C30.4448 22.5795 31.2134 22.3852 31.7185 21.9964C32.2237 21.6075 32.5643 20.9585 32.7413 20.049C32.9107 19.1759 32.8336 18.5597 32.5098 18.2007C32.1858 17.8417 31.5377 17.6622 30.5654 17.6622H28.8118L27.8561 22.5795ZM31.5346 15.8081C33.0152 15.8081 34.0953 16.1967 34.7742 16.9739C35.4532 17.751 35.6575 18.8358 35.3867 20.2286C35.2752 20.8023 35.0866 21.3268 34.8212 21.802C34.5554 22.2776 34.2083 22.7124 33.7795 23.1067C33.2684 23.5849 32.7007 23.9258 32.0759 24.1287C31.4512 24.3323 30.6554 24.4336 29.6881 24.4336H27.4958L26.8888 27.5573H24.3293L26.6129 15.8081H31.5346" fill="white"/>
</g>
<defs>
<clipPath id="clip0_461_4433">
<rect width="40" height="40" fill="white"/>
</clipPath>
</defs>
</svg>
