<svg width="40" height="40" viewBox="0 0 40 40" fill="none" xmlns="http://www.w3.org/2000/svg">
<g clip-path="url(#clip0_461_4716)">
<path d="M7.08334 3.22406e-06H32.9167C33.8471 -0.000896212 34.7686 0.186404 35.6284 0.551183C36.4882 0.915963 37.2694 1.45106 37.9273 2.12585C38.5852 2.80065 39.1069 3.60189 39.4626 4.48372C39.8183 5.36555 40.0009 6.31066 40 7.26496V32.735C40.0009 33.6893 39.8183 34.6345 39.4626 35.5163C39.1069 36.3981 38.5852 37.1994 37.9273 37.8741C37.2694 38.5489 36.4882 39.084 35.6284 39.4488C34.7686 39.8136 33.8471 40.0009 32.9167 40H7.08334C6.15289 40.0009 5.23141 39.8136 4.37162 39.4488C3.51184 39.084 2.73063 38.5489 2.07271 37.8741C1.41478 37.1994 0.893064 36.3981 0.537404 35.5163C0.181743 34.6345 -0.000873806 33.6893 3.14346e-06 32.735V7.26496C-0.000873806 6.31066 0.181743 5.36555 0.537404 4.48372C0.893064 3.60189 1.41478 2.80065 2.07271 2.12585C2.73063 1.45106 3.51184 0.915963 4.37162 0.551183C5.23141 0.186404 6.15289 -0.000896212 7.08334 3.22406e-06V3.22406e-06Z" fill="#000B1D"/>
<path d="M19.9437 6.59961C13.0104 6.59961 13.4434 9.60632 13.4434 9.60632L13.4511 12.7212H20.0674V13.6565H10.8231C10.8231 13.6565 6.38647 13.1533 6.38647 20.1491C6.38647 27.145 10.2589 26.8969 10.2589 26.8969H12.5699V23.6505C12.5699 23.6505 12.4454 19.7781 16.3805 19.7781C20.3157 19.7781 22.9427 19.7781 22.9427 19.7781C22.9427 19.7781 26.6296 19.8377 26.6296 16.2149C26.6296 12.5921 26.6296 10.2247 26.6296 10.2247C26.6296 10.2247 27.1894 6.59961 19.9437 6.59961ZM16.2955 8.69426C16.9538 8.69426 17.4858 9.22631 17.4858 9.88458C17.4858 10.5429 16.9538 11.0749 16.2955 11.0749C15.6372 11.0749 15.1052 10.5429 15.1052 9.88458C15.1052 9.22631 15.6372 8.69426 16.2955 8.69426Z" fill="url(#paint0_linear_461_4716)"/>
<path d="M20.1407 33.769C27.0741 33.769 26.6411 30.7623 26.6411 30.7623L26.6334 27.6474H20.0171V26.7122H29.2614C29.2614 26.7122 33.698 27.2153 33.698 20.2195C33.698 13.2237 29.8256 13.4718 29.8256 13.4718H27.5145V16.7181C27.5145 16.7181 27.6391 20.5905 23.704 20.5905C19.7688 20.5905 17.1417 20.5905 17.1417 20.5905C17.1417 20.5905 13.4549 20.5309 13.4549 24.1537C13.4549 27.7766 13.4549 30.144 13.4549 30.144C13.4549 30.144 12.8951 33.769 20.1407 33.769ZM23.789 31.6744C23.1307 31.6744 22.5987 31.1424 22.5987 30.4841C22.5987 29.8258 23.1307 29.2938 23.789 29.2938C24.4473 29.2938 24.9793 29.8258 24.9793 30.4841C24.9793 31.1424 24.4473 31.6744 23.789 31.6744Z" fill="url(#paint1_linear_461_4716)"/>
</g>
<defs>
<linearGradient id="paint0_linear_461_4716" x1="9.01116" y1="8.97444" x2="22.5159" y2="22.5243" gradientUnits="userSpaceOnUse">
<stop stop-color="#387EB8"/>
<stop offset="1" stop-color="#366994"/>
</linearGradient>
<linearGradient id="paint1_linear_461_4716" x1="17.3188" y1="17.5945" x2="31.8229" y2="31.4902" gradientUnits="userSpaceOnUse">
<stop stop-color="#FFE052"/>
<stop offset="1" stop-color="#FFC331"/>
</linearGradient>
<clipPath id="clip0_461_4716">
<rect width="40" height="40" fill="white"/>
</clipPath>
</defs>
</svg>
