<svg width="40" height="40" viewBox="0 0 40 40" fill="none" xmlns="http://www.w3.org/2000/svg">
<g clip-path="url(#clip0_461_4341)">
<path d="M7.08334 3.22406e-06H32.9167C33.8471 -0.000896211 34.7686 0.186404 35.6284 0.551183C36.4882 0.915963 37.2694 1.45106 37.9273 2.12585C38.5852 2.80065 39.1069 3.60189 39.4626 4.48372C39.8183 5.36555 40.0009 6.31066 40 7.26496V32.735C40.0009 33.6893 39.8183 34.6345 39.4626 35.5163C39.1069 36.3981 38.5852 37.1994 37.9273 37.8741C37.2694 38.5489 36.4882 39.084 35.6284 39.4488C34.7686 39.8136 33.8471 40.0009 32.9167 40H7.08334C6.15289 40.0009 5.23141 39.8136 4.37162 39.4488C3.51184 39.084 2.73063 38.5489 2.07271 37.8741C1.41478 37.1994 0.893064 36.3981 0.537404 35.5163C0.181743 34.6345 -0.000873806 33.6893 3.14346e-06 32.735V7.26496C-0.000873806 6.31066 0.181743 5.36555 0.537404 4.48372C0.893064 3.60189 1.41478 2.80065 2.07271 2.12585C2.73063 1.45106 3.51184 0.915963 4.37162 0.551183C5.23141 0.186404 6.15289 -0.000896211 7.08334 3.22406e-06V3.22406e-06Z" fill="#000B1D"/>
<g clip-path="url(#clip1_461_4341)">
<path d="M20.0001 22.6441C21.5359 22.6441 22.781 21.4151 22.781 19.8992C22.781 18.3832 21.5359 17.1543 20.0001 17.1543C18.4643 17.1543 17.2192 18.3832 17.2192 19.8992C17.2192 21.4151 18.4643 22.6441 20.0001 22.6441Z" fill="#61DAFB"/>
<path fill-rule="evenodd" clip-rule="evenodd" d="M6.6864 18.1853C6.01167 18.7865 5.72822 19.3664 5.72822 19.8981C5.72822 20.4298 6.01167 21.0096 6.6864 21.6108C7.36105 22.212 8.37379 22.7827 9.68055 23.2752C12.2896 24.2585 15.9379 24.8802 20 24.8802C24.062 24.8802 27.7103 24.2585 30.3194 23.2752C31.6261 22.7827 32.6389 22.212 33.3135 21.6108C33.9882 21.0096 34.2717 20.4298 34.2717 19.8981C34.2717 19.3664 33.9882 18.7865 33.3135 18.1853C32.6389 17.5842 31.6261 17.0134 30.3194 16.5209C27.7103 15.5376 24.062 14.916 20 14.916C15.9379 14.916 12.2896 15.5376 9.68055 16.5209C8.37379 17.0134 7.36105 17.5842 6.6864 18.1853ZM9.21684 15.3222C12.0084 14.2701 15.821 13.6328 20 13.6328C24.1789 13.6328 27.9915 14.2701 30.7831 15.3222C32.1766 15.8473 33.3491 16.4884 34.1846 17.2328C35.0201 17.9773 35.5717 18.8768 35.5717 19.8981C35.5717 20.9193 35.0201 21.8189 34.1846 22.5633C33.3491 23.3078 32.1766 23.9488 30.7831 24.474C27.9915 25.5261 24.1789 26.1633 20 26.1633C15.821 26.1633 12.0084 25.5261 9.21684 24.474C7.8233 23.9488 6.6508 23.3078 5.8153 22.5633C4.97986 21.8189 4.42822 20.9193 4.42822 19.8981C4.42822 18.8768 4.97986 17.9773 5.8153 17.2328C6.6508 16.4884 7.8233 15.8473 9.21684 15.3222Z" fill="#61DAFB"/>
<path fill-rule="evenodd" clip-rule="evenodd" d="M14.8457 7.66167C13.9809 7.38551 13.3304 7.43314 12.8639 7.69898C12.3975 7.96482 12.0304 8.49705 11.8403 9.37442C11.6502 10.2517 11.6558 11.4028 11.8771 12.7661C12.3189 15.488 13.5976 18.9175 15.6286 22.3898C17.6597 25.8621 20.0292 28.6699 22.1965 30.4086C23.282 31.2794 24.2891 31.8597 25.1539 32.1358C26.0187 32.412 26.6692 32.3644 27.1357 32.0985C27.6022 31.8327 27.9692 31.3005 28.1593 30.4231C28.3494 29.5458 28.3438 28.3947 28.1225 27.0314C27.6807 24.3095 26.402 20.8801 24.371 17.4077C22.3399 13.9354 19.9704 11.1276 17.8031 9.38894C16.7177 8.51813 15.7105 7.93781 14.8457 7.66167ZM18.6231 8.39316C20.9419 10.2534 23.4073 13.1938 25.4968 16.7661C27.5863 20.3384 28.9335 23.9161 29.4062 26.8284C29.6422 28.2822 29.666 29.605 29.4306 30.6915C29.1951 31.7778 28.6817 32.6992 27.7857 33.2098C26.8896 33.7204 25.8246 33.6987 24.7537 33.3567C23.6828 33.0147 22.5341 32.333 21.3766 31.4043C19.0577 29.5441 16.5923 26.6037 14.5028 23.0314C12.4133 19.4591 11.0661 15.8814 10.5934 12.9691C10.3575 11.5153 10.3336 10.1925 10.5691 9.10603C10.8045 8.01967 11.3179 7.09834 12.2139 6.58771C13.11 6.07708 14.175 6.09885 15.2459 6.44079C16.3168 6.78277 17.4655 7.46453 18.6231 8.39316Z" fill="#61DAFB"/>
<path fill-rule="evenodd" clip-rule="evenodd" d="M28.1593 9.37478C27.9692 8.4974 27.6022 7.96517 27.1357 7.69934C26.6692 7.4335 26.0188 7.38587 25.1539 7.66203C24.2891 7.93817 23.282 8.51849 22.1965 9.38929C20.0293 11.1279 17.6597 13.9357 15.6287 17.4081C13.5976 20.8804 12.3189 24.3099 11.8771 27.0318C11.6558 28.3951 11.6502 29.5462 11.8403 30.4234C12.0305 31.3008 12.3975 31.833 12.864 32.0989C13.3305 32.3647 13.9809 32.4124 14.8458 32.1362C15.7105 31.8601 16.7177 31.2797 17.8032 30.4089C19.9704 28.6703 22.34 25.8625 24.371 22.3902C26.402 18.9178 27.6808 15.4884 28.1226 12.7664C28.3439 11.4032 28.3495 10.2521 28.1593 9.37478ZM29.4062 12.9694C28.9335 15.8818 27.5863 19.4595 25.4968 23.0317C23.4074 26.604 20.9419 29.5445 18.6231 31.4047C17.4655 32.3333 16.3169 33.0151 15.2459 33.3571C14.1751 33.699 13.11 33.7208 12.214 33.2102C11.3179 32.6995 10.8045 31.7782 10.5691 30.6918C10.3337 29.6054 10.3575 28.2826 10.5935 26.8288C11.0662 23.9165 12.4134 20.3388 14.5028 16.7665C16.5923 13.1942 19.0577 10.2538 21.3766 8.39352C22.5342 7.46489 23.6828 6.78312 24.7538 6.44115C25.8246 6.09921 26.8897 6.07744 27.7857 6.58807C28.6817 7.0987 29.1952 8.02003 29.4306 9.10639C29.666 10.1928 29.6422 11.5156 29.4062 12.9694Z" fill="#61DAFB"/>
</g>
</g>
<defs>
<clipPath id="clip0_461_4341">
<rect width="40" height="40" fill="white"/>
</clipPath>
<clipPath id="clip1_461_4341">
<rect width="31.2" height="27.4" fill="white" transform="translate(4.3999 6.19922)"/>
</clipPath>
</defs>
</svg>
