<svg width="40" height="40" viewBox="0 0 40 40" fill="none" xmlns="http://www.w3.org/2000/svg">
<path d="M20 39.5312C30.7868 39.5312 39.5312 30.7868 39.5312 20C39.5312 9.21319 30.7868 0.46875 20 0.46875C9.21319 0.46875 0.46875 9.21319 0.46875 20C0.46875 30.7868 9.21319 39.5312 20 39.5312Z" fill="url(#paint0_linear_3_7298)"/>
<path d="M20 2.375V5.25M20 34.6563V37.5312M23.0625 2.65625L22.5625 5.5M17.4375 34.4062L16.9375 37.25M26 3.4375L25.0313 6.15625M14.9688 33.75L14 36.4687M16.9375 2.65625L17.4375 5.5M22.5625 34.4062L23.0625 37.25M14 3.4375L14.9688 6.15625M25.0313 33.75L26 36.4687M11.2188 4.75L12.6563 7.25M27.3438 32.6875L28.7813 35.1563M8.71875 6.5L10.5625 8.6875M29.4375 31.2188L31.2813 33.4063M6.53125 8.65625L8.75 10.5M31.25 29.4062L33.4688 31.25M4.78125 11.1875L7.28125 12.625M32.7188 27.3125L35.2188 28.75M3.5 13.9375L6.1875 14.9375M33.8125 24.9688L36.5 25.9688M2.6875 16.9062L5.53125 17.4063M34.4688 22.5L37.3125 23M2.4375 19.9688H5.3125M34.6875 19.9688H37.5625M2.6875 23L5.53125 22.5M34.4688 17.4063L37.3125 16.9062M3.5 25.9688L6.1875 24.9688M33.8125 14.9375L36.5 13.9375M4.78125 28.75L7.28125 27.3125M32.7188 12.625L35.2188 11.1875M6.53125 31.25L8.75 29.4062M31.25 10.5L33.4688 8.65625M8.71875 33.4063L10.5625 31.2188M29.4375 8.6875L31.2813 6.5M11.2188 35.1563L12.6563 32.6875M27.3438 7.25L28.7813 4.75M18.4688 2.46875L18.5938 4.03125M21.4063 35.9063L21.5313 37.4688M15.4375 3L15.8438 4.5M24.1563 35.4063L24.5625 36.9375M12.5625 4.03125L13.2188 5.46875M26.75 34.4688L27.4375 35.875M9.90625 5.5625L10.8125 6.84375M29.1875 33.0625L30.0938 34.3438M7.5625 7.53125L8.6875 8.625M31.3125 31.2812L32.4375 32.375M5.59375 9.875L6.90625 10.7812M33.0938 29.125L34.4063 30.0312M4.09375 12.5312L5.5 13.1875M34.5 26.7188L35.9063 27.375M3.03125 15.4063L4.5625 15.8125M35.4375 24.0938L36.9688 24.5M2.5 18.4063L4.0625 18.5625M35.9375 21.3438L37.5 21.5M2.5 21.5L4.0625 21.3438M35.9375 18.5625L37.5 18.4063M3.03125 24.5L4.5625 24.0938M35.4375 15.8125L36.9688 15.4063M4.09375 27.375L5.5 26.7188M34.5 13.1875L35.9063 12.5312M5.59375 30.0312L6.90625 29.125M33.0938 10.7812L34.4063 9.875M9.90625 34.3438L10.8125 33.0625M29.1875 6.84375L30.0938 5.5625M12.5625 35.875L13.25 34.4688M26.75 5.46875L27.4375 4.03125M15.4375 36.9375L15.8438 35.4063M24.1563 4.5L24.5625 3M18.4688 37.4688L18.5938 35.9063M21.4063 4.03125L21.5313 2.46875" stroke="white"/>
<path d="M33.3437 6.5625L18.3438 18.3438L19.9688 19.9688L33.3437 6.5625Z" fill="#FF0000"/>
<path d="M19.9688 19.9688L21.8438 21.8438L33.3437 6.5625L19.9688 19.9688Z" fill="#D01414"/>
<path d="M18.3438 18.3438L6.5625 33.3437L19.9688 19.9688L18.3438 18.3438Z" fill="white"/>
<path d="M6.5625 33.3437L21.8438 21.8438L19.9688 19.9688L6.5625 33.3437Z" fill="#ACACAC"/>
<defs>
<linearGradient id="paint0_linear_3_7298" x1="20.0062" y1="0.4725" x2="20.0062" y2="39.5325" gradientUnits="userSpaceOnUse">
<stop stop-color="#19D7FF"/>
<stop offset="1" stop-color="#1E64F0"/>
</linearGradient>
</defs>
</svg>
