<svg width="40" height="40" viewBox="0 0 40 40" fill="none" xmlns="http://www.w3.org/2000/svg">
<path d="M7.08334 3.22406e-06H32.9167C33.8471 -0.000896211 34.7686 0.186404 35.6284 0.551183C36.4882 0.915963 37.2694 1.45106 37.9273 2.12585C38.5852 2.80065 39.1069 3.60189 39.4626 4.48372C39.8183 5.36555 40.0009 6.31066 40 7.26496V32.735C40.0009 33.6893 39.8183 34.6345 39.4626 35.5163C39.1069 36.3981 38.5852 37.1994 37.9273 37.8741C37.2694 38.5489 36.4882 39.084 35.6284 39.4488C34.7686 39.8136 33.8471 40.0009 32.9167 40H7.08334C6.15289 40.0009 5.23141 39.8136 4.37162 39.4488C3.51184 39.084 2.73063 38.5489 2.07271 37.8741C1.41478 37.1994 0.893064 36.3981 0.537404 35.5163C0.181743 34.6345 -0.000873806 33.6893 3.14346e-06 32.735V7.26496C-0.000873806 6.31066 0.181743 5.36555 0.537404 4.48372C0.893064 3.60189 1.41478 2.80065 2.07271 2.12585C2.73063 1.45106 3.51184 0.915963 4.37162 0.551183C5.23141 0.186404 6.15289 -0.000896211 7.08334 3.22406e-06V3.22406e-06Z" fill="#000B1D"/>
<g clip-path="url(#clip0_461_4715)">
<path d="M30.9602 21.8188C29.9003 21.8244 28.9791 22.0821 28.2077 22.463C27.9247 21.8972 27.6417 21.3931 27.5917 21.0234C27.5362 20.5921 27.4696 20.3288 27.5362 19.8135C27.6028 19.2981 27.9025 18.5643 27.8969 18.5083C27.8914 18.4523 27.8303 18.189 27.2199 18.1834C26.6095 18.1778 26.0823 18.301 26.0212 18.4635C25.9602 18.6259 25.8436 18.9956 25.7659 19.3765C25.6605 19.9367 24.5451 21.9364 23.9069 22.9839C23.7015 22.575 23.524 22.2165 23.4851 21.9308C23.4296 21.4995 23.363 21.2362 23.4296 20.7209C23.4962 20.2056 23.7959 19.4718 23.7903 19.4157C23.7848 19.3597 23.7237 19.0965 23.1133 19.0909C22.5029 19.0853 21.9757 19.2085 21.9146 19.3709C21.8536 19.5334 21.787 19.9143 21.6593 20.284C21.5317 20.6537 20.05 23.9922 19.6615 24.8549C19.4617 25.2974 19.2897 25.6503 19.1676 25.8911C19.1676 25.8911 19.1621 25.9079 19.1454 25.936C19.04 26.1432 18.9789 26.2552 18.9789 26.2552C18.9789 26.2552 18.9789 26.2552 18.9789 26.2608C18.8957 26.4121 18.8069 26.5521 18.7625 26.5521C18.7292 26.5521 18.6682 26.1488 18.7736 25.5999C18.9956 24.4403 19.5228 22.6366 19.5172 22.575C19.5172 22.5414 19.6171 22.2277 19.1732 22.0653C18.7403 21.9028 18.5849 22.1717 18.5461 22.1717C18.5072 22.1717 18.4795 22.2669 18.4795 22.2669C18.4795 22.2669 18.9623 20.2392 17.5583 20.2392C16.6815 20.2392 15.4717 21.2082 14.8723 22.0821C14.495 22.2893 13.6903 22.7319 12.8301 23.208C12.5027 23.3928 12.1642 23.5777 11.8479 23.7513C11.8257 23.7289 11.8035 23.7009 11.7813 23.6785C10.0831 21.8468 6.94213 20.5529 7.07532 18.0938C7.12527 17.1975 7.43049 14.8449 13.1076 11.9881C17.7803 9.66343 21.4984 10.3076 22.1421 11.736C23.0633 13.775 20.1499 17.5616 15.3218 18.1106C13.4794 18.3178 12.5138 17.6008 12.2696 17.332C12.0144 17.0519 11.9755 17.0351 11.8812 17.0911C11.7258 17.1751 11.8257 17.4272 11.8812 17.5728C12.0254 17.9537 12.6192 18.6259 13.6237 18.9564C14.5116 19.2477 16.6704 19.4101 19.2842 18.3907C22.2087 17.2479 24.4951 14.0719 23.8236 11.4111C23.1521 8.71116 18.7126 7.82052 14.5116 9.32734C12.0144 10.2236 9.30621 11.6352 7.35834 13.4725C5.04422 15.6571 4.67795 17.556 4.82779 18.3514C5.36609 21.1746 9.22297 23.0119 10.7657 24.3731C10.688 24.4179 10.6159 24.4571 10.5548 24.4908C9.78346 24.8773 6.84224 26.4289 6.10971 28.0702C5.27729 29.9299 6.2429 31.263 6.88109 31.4423C8.86225 31.9968 10.8989 30.9998 11.9922 29.3529C13.0854 27.706 12.9522 25.5663 12.4472 24.586C12.4417 24.5748 12.4361 24.5636 12.425 24.5524C12.6248 24.4347 12.8301 24.3115 13.0299 24.1939C13.4239 23.9586 13.8124 23.7401 14.1453 23.5609C13.9567 24.0818 13.8179 24.7036 13.7513 25.5999C13.6681 26.653 14.0954 28.0197 14.6559 28.5575C14.9056 28.7928 15.1997 28.7984 15.3884 28.7984C16.0433 28.7984 16.3374 28.2494 16.6648 27.5996C17.0644 26.8042 17.4251 25.8799 17.4251 25.8799C17.4251 25.8799 16.9756 28.3782 18.1965 28.3782C18.6404 28.3782 19.0899 27.7957 19.2897 27.4988C19.2897 27.5044 19.2897 27.5044 19.2897 27.5044C19.2897 27.5044 19.3008 27.4876 19.323 27.4484C19.3674 27.3756 19.3951 27.3307 19.3951 27.3307C19.3951 27.3307 19.3951 27.3251 19.3951 27.3195C19.5727 27.0059 19.9723 26.2945 20.5661 25.1125C21.3319 23.5889 22.07 21.6844 22.07 21.6844C22.07 21.6844 22.1366 22.1493 22.3641 22.9223C22.4973 23.376 22.7748 23.8746 22.9968 24.3563C22.8192 24.6084 22.7082 24.7484 22.7082 24.7484C22.7082 24.7484 22.7082 24.7484 22.7137 24.754C22.5694 24.9445 22.4141 25.1517 22.242 25.3534C21.6371 26.0816 20.9157 26.9162 20.8158 27.1571C20.6993 27.4428 20.727 27.65 20.949 27.8181C21.1099 27.9413 21.3985 27.9581 21.6926 27.9413C22.2365 27.9021 22.6194 27.7677 22.8081 27.6836C23.1022 27.5772 23.4463 27.4148 23.7681 27.1739C24.3619 26.7314 24.7226 26.0984 24.6893 25.2638C24.6727 24.8044 24.5229 24.3451 24.3397 23.9138C24.3952 23.8354 24.4452 23.757 24.5007 23.6785C25.4385 22.2949 26.1655 20.7769 26.1655 20.7769C26.1655 20.7769 26.2321 21.2419 26.4596 22.0149C26.5706 22.407 26.7981 22.8327 26.9979 23.2472C26.1156 23.9698 25.5717 24.81 25.3775 25.359C25.0279 26.3785 25.2998 26.8378 25.8159 26.9442C26.049 26.9947 26.3819 26.8826 26.6261 26.7762C26.9369 26.6754 27.3031 26.5017 27.6528 26.244C28.2466 25.8015 28.8181 25.1853 28.7849 24.3507C28.7682 23.9698 28.6683 23.5945 28.5296 23.2304C29.2788 22.9167 30.2444 22.7431 31.4763 22.8887C34.1179 23.2024 34.6395 24.8661 34.5397 25.5663C34.4398 26.2664 33.8848 26.6474 33.7017 26.765C33.5186 26.8826 33.4575 26.9218 33.4742 27.0059C33.4964 27.1291 33.5851 27.1235 33.7405 27.1011C33.957 27.0619 35.1279 26.5353 35.1778 25.247C35.2611 23.6001 33.7072 21.802 30.9602 21.8188ZM10.5826 28.7535C9.70577 29.717 8.48489 30.0811 7.95769 29.773C7.39164 29.4425 7.61362 28.0197 8.69022 27.0003C9.34506 26.3785 10.1886 25.8015 10.7491 25.4486C10.8767 25.3702 11.0654 25.2582 11.2929 25.1181C11.3318 25.0957 11.354 25.0845 11.354 25.0845C11.3984 25.0565 11.4428 25.0285 11.4872 25.0005C11.8812 26.4569 11.5038 27.7397 10.5826 28.7535ZM16.9645 24.3731C16.6593 25.1237 16.0211 27.0451 15.6326 26.9386C15.2996 26.849 15.0943 25.3926 15.566 23.953C15.8046 23.2304 16.3096 22.3678 16.6038 22.0317C17.081 21.4939 17.6082 21.3147 17.7359 21.5331C17.8968 21.8188 17.1532 23.9026 16.9645 24.3731ZM22.2309 26.9162C22.1033 26.9834 21.9812 27.0283 21.9257 26.9947C21.8869 26.9722 21.9812 26.8826 21.9812 26.8826C21.9812 26.8826 22.6416 26.1656 22.9024 25.8407C23.0522 25.6503 23.2298 25.4262 23.4185 25.1741C23.4185 25.1966 23.4185 25.2246 23.4185 25.247C23.4185 26.104 22.5972 26.681 22.2309 26.9162ZM26.2931 25.9808C26.1988 25.9135 26.2154 25.6895 26.5318 24.9893C26.6539 24.7148 26.9424 24.2555 27.4363 23.813C27.4918 23.9922 27.5307 24.1659 27.5251 24.3283C27.5196 25.4094 26.7537 25.8127 26.2931 25.9808Z" fill="#CD6799"/>
</g>
<defs>
<clipPath id="clip0_461_4715">
<rect width="30.4" height="23" fill="white" transform="translate(4.80005 8.59961)"/>
</clipPath>
</defs>
</svg>
