<svg width="40" height="40" viewBox="0 0 40 40" fill="none" xmlns="http://www.w3.org/2000/svg">
<path d="M8.51709 25.2247C8.51709 27.5153 6.64896 29.3862 4.35803 29.3862C2.0674 29.3862 0.196777 27.5153 0.196777 25.2247C0.196777 22.934 2.06771 21.0631 4.35834 21.0631H8.5174L8.51709 25.2247ZM10.6137 25.2247C10.6137 22.934 12.4846 21.0631 14.7752 21.0631C17.0658 21.0631 18.9368 22.9337 18.9368 25.2247V35.6419C18.9368 37.9325 17.0662 39.8034 14.7752 39.8034C12.4846 39.8034 10.6137 37.9325 10.6137 35.6419V25.2247Z" fill="#DE1C59"/>
<path d="M14.7752 8.51721C12.4846 8.51721 10.6137 6.64909 10.6137 4.35815C10.6137 2.06752 12.4846 0.196899 14.7752 0.196899C17.0658 0.196899 18.9368 2.06784 18.9368 4.35846V8.51752L14.7752 8.51721ZM14.7752 10.6138C17.0658 10.6138 18.9368 12.4847 18.9368 14.7753C18.9368 17.066 17.0662 18.9369 14.7752 18.9369H4.35803C2.0674 18.9369 0.196777 17.0663 0.196777 14.7753C0.196777 12.4847 2.06771 10.6138 4.35834 10.6138H14.7752Z" fill="#35C5F0"/>
<path d="M31.4827 14.7753C31.4827 12.4847 33.3508 10.6138 35.6417 10.6138C37.9324 10.6138 39.8033 12.4847 39.8033 14.7753C39.8033 17.066 37.9324 18.9369 35.6417 18.9369H31.4827V14.7753ZM29.3861 14.7753C29.3861 17.066 27.5152 18.9369 25.2246 18.9369C22.9339 18.9369 21.063 17.0663 21.063 14.7753V4.35815C21.063 2.06752 22.9336 0.196899 25.2246 0.196899C27.5152 0.196899 29.3861 2.06784 29.3861 4.35846V14.7753Z" fill="#2EB57D"/>
<path d="M25.2246 31.4828C27.5152 31.4828 29.3861 33.3509 29.3861 35.6419C29.3861 37.9325 27.5152 39.8034 25.2246 39.8034C22.9339 39.8034 21.063 37.9325 21.063 35.6419V31.4828H25.2246ZM25.2246 29.3862C22.9339 29.3862 21.063 27.5153 21.063 25.2247C21.063 22.934 22.9336 21.0631 25.2246 21.0631H35.6417C37.9324 21.0631 39.8033 22.9337 39.8033 25.2247C39.8033 27.5153 37.9324 29.3862 35.6417 29.3862H25.2246Z" fill="#EBB02E"/>
</svg>
