<svg width="40" height="40" viewBox="0 0 40 40" fill="none" xmlns="http://www.w3.org/2000/svg">
<path d="M6.92104 24.4706C7.40106 25.0605 7.90752 25.6284 8.43885 26.1725C6.81822 26.66 5.75572 27.5656 5.09322 28.3653C4.04447 29.6309 3.48947 31.3022 3.61729 32.7366H0.82666C1.38604 31.5219 3.62041 28.0131 6.92135 24.4709L6.92104 24.4706ZM39.2488 33.4975H35.856C28.0717 29.4353 21.2373 26.571 13.9773 25.9453C13.9926 24.935 14.1723 23.7913 14.5182 22.5166L13.8495 22.3366C13.4945 23.6466 13.3082 24.8319 13.287 25.8928C12.5304 25.8422 11.7692 25.8178 11.0004 25.8178C10.3501 25.8178 9.75666 25.8775 9.21541 25.9822C8.50979 25.2778 7.90853 24.6047 7.39822 23.9666C10.7463 20.4794 16.2617 17.3244 21.0617 16.1375C22.4132 20.63 25.3145 23.7081 28.8354 25.7791C29.0936 25.632 29.3474 25.4773 29.5963 25.315L35.7388 31.9275L36.0076 31.9047C37.6851 31.7603 38.6385 32.6703 38.8907 32.9534C39.0767 33.1594 39.1876 33.3485 39.2488 33.4975V33.4975Z" fill="#D1A41A"/>
<path d="M36.2526 11.3788C36.3773 17.4813 33.2638 22.3381 28.9048 24.8288C21.5063 21.1438 20.1132 11.805 21.3741 6.79596C21.7248 8.71158 22.3629 9.91252 23.7404 10.5013C26.7448 9.6419 30.8791 9.57409 33.9248 10.4138C35.1935 9.49127 35.6854 8.08127 35.9544 6.84971C36.2894 8.28252 36.2513 11.3791 36.2526 11.3791V11.3788Z" fill="#FFDC76"/>
<path d="M15.3426 18.2019L17.6426 17.1566L18.7711 20.5009L15.3426 18.2019ZM13.0014 19.4144L14.3401 18.62L15.5517 20.71L13.0014 19.4144ZM10.4092 21.1281L11.5798 20.25L12.1651 22.3412L10.4092 21.1281ZM31.1051 26.6478L30.2686 25.8531L29.1817 27.5259L31.1051 26.6478ZM32.6532 28.4869L31.9829 27.7762L30.2273 29.1137L32.6532 28.4869ZM29.852 9.58875L27.7195 9.63062L29.0157 12.4737L29.852 9.58875ZM21.3632 14.9822L21.1542 13.7697L23.2039 14.8569L21.3632 14.9822ZM21.8645 16.78L21.6554 15.9859L22.9101 16.4875L21.8645 16.78ZM35.9973 15.4844L36.2911 14.5644L34.6182 15.275L35.9973 15.4844ZM35.3701 17.3656L35.6207 16.6131L34.3245 16.9894L35.3701 17.3656Z" fill="black"/>
<path d="M20.4805 19.7509H24.5158V20.249H20.4805V19.7509ZM20.4805 18.5553H24.5158V19.0534H20.4805V18.5553ZM32.8023 19.7509H36.8373V20.249H32.8023V19.7509ZM32.8023 18.5553H36.8373V19.0534H32.8023V18.5553ZM31.3802 15.6019H24.8042V15.1531H26.8505C27.1027 14.074 27.1523 13.0428 26.8486 12.52C26.7186 12.2981 26.5392 12.194 26.2836 12.194C25.1136 12.194 24.6305 13.4312 24.6102 13.4837L24.6105 13.4834L24.1908 13.3259C24.2148 13.2612 24.8002 11.7456 26.2836 11.7456C26.6977 11.7456 27.0267 11.9356 27.2355 12.2947C27.6061 12.9312 27.5627 14.0328 27.3114 15.1531H30.902C31.3792 13.7515 32.3752 13.0906 34.0395 13.0906V13.539C32.2358 13.539 31.7302 14.3037 31.3695 15.1531H33.3289L33.3242 15.5994L31.3798 15.6015L31.3802 15.6019ZM31.6752 17.8159L31.6783 17.8156ZM31.6752 17.8159L31.6783 17.8156Z" fill="black"/>
<path d="M31.675 17.8159L31.6781 17.8156C31.1462 17.0312 30.9775 16.3619 31.2 15.5997L30.7431 15.6019C30.584 16.1094 30.6478 16.8737 31.04 17.53H26.4775C26.755 16.9737 27.0121 16.2959 27.2003 15.6019H26.7359C26.5284 16.3378 26.2375 17.0662 25.9096 17.6431L25.8037 17.8297L28.364 19.4412L26.9228 20.3912L27.1696 20.7656L28.7806 19.7034L30.52 20.8384L30.7587 20.459L29.1462 19.4615C29.1462 19.4615 31.5575 17.8953 31.6771 17.8187C31.6762 17.8178 31.6759 17.8169 31.6753 17.8156L31.675 17.8159ZM28.7753 19.1703L26.8815 17.9781L30.5825 17.979L28.7753 19.1703Z" fill="black"/>
<path d="M37.0044 10.8381C37.0016 10.0584 36.7588 6.76374 36.3125 5.85656C35.1025 6.31624 32.901 7.80624 32.4025 9.32937C30.0144 8.97312 27.3222 9.01499 24.9638 9.42312C24.57 7.78406 22.5925 6.53 21.1006 5.82312C20.4713 6.885 20.1925 9.34718 20.2631 11.0937L20.255 11.0994C20.5319 18.4331 24.1297 22.9994 28.8341 25.7669C33.6747 23.0012 37.1325 17.6094 36.9985 10.8347L37.0047 10.8378L37.0044 10.8381ZM32.9769 9.42406L33.0297 9.43374L32.9766 9.42437L32.9769 9.42406ZM32.6756 9.37218C32.7181 9.37906 32.761 9.38656 32.8035 9.39406L32.6756 9.37218ZM36.2516 11.3672C36.376 17.4697 33.2625 22.3266 28.9038 24.8172C21.5056 21.1312 20.1119 11.7934 21.3735 6.78437C21.7244 8.69906 22.361 9.90031 23.7403 10.4894C26.7435 9.63 30.8778 9.56218 33.9235 10.4019C35.1925 9.47906 35.6847 8.06968 35.9535 6.83812C36.2894 8.27124 36.2503 11.3669 36.2516 11.3675V11.3672Z" fill="black"/>
<path d="M39.4075 32.4797C38.6478 31.6297 37.1593 31.2275 35.9162 31.2572C35.034 30.2072 29.9193 24.8209 29.9193 24.8209L29.565 25.2675L35.74 31.9153L36.0078 31.8922C37.6856 31.7484 38.639 32.6584 38.8918 32.9406C39.0768 33.1478 39.1887 33.3366 39.2493 33.485H35.8556C28.0709 29.4225 21.2368 26.5584 13.9765 25.9341C13.9921 24.9237 14.1721 23.78 14.5171 22.5059L13.8496 22.3247C13.495 23.6347 13.3078 24.8209 13.2868 25.8816C12.5306 25.8316 11.769 25.8053 11.0009 25.8053C10.3493 25.8053 9.75621 25.8659 9.21527 25.9709C8.50934 25.2656 7.9084 24.5934 7.39746 23.9553C10.7693 20.4425 16.3381 17.2672 21.1625 16.0997L21.0059 15.4237C15.8106 16.6769 10.1237 20.0872 6.95496 23.3822C5.48434 21.3972 4.9009 19.7684 4.72746 18.5341C4.50871 16.975 4.88059 15.545 5.80371 14.3981C7.2484 12.6034 9.30121 12.4769 11.4118 12.8319C11.3709 13.1653 11.4146 13.4841 11.5481 13.6809C12.1062 14.5056 15.1065 14.7953 16.8971 13.9962C15.5756 12.1444 12.8987 11.24 12.1571 11.6025C11.9115 11.7225 11.7259 11.9431 11.599 12.2C10.8693 12.0694 10.1446 11.9722 9.61527 11.9762C7.75371 11.99 6.33059 12.6403 5.26465 13.9647C4.21871 15.2637 3.7959 16.8772 4.04215 18.6303C4.27527 20.2909 5.09746 22.0572 6.47527 23.8884C6.24652 24.1341 6.02527 24.3766 5.81215 24.6147C2.45402 28.3725 -0.000976562 32.4022 -0.000976562 33.07V33.4159H4.42934L4.35184 33.0056C4.10184 31.6831 4.60121 30.0306 5.62465 28.795C6.26746 28.0197 7.33152 27.1344 9.00246 26.7262C10.4881 28.1762 12.3812 29.7159 14.4881 31.2016H17.7806V30.8556C17.7806 30.4653 17.5868 30.1237 17.2356 29.8937C16.7153 29.5537 15.9125 29.5069 15.175 29.7584C14.4718 28.9753 14.0775 27.9294 13.9925 26.63C21.1378 27.2625 27.9725 30.1481 35.6837 34.1769H39.9268L39.9825 33.8987C40.0618 33.5028 39.8459 32.9722 39.4056 32.4797H39.4075ZM5.09371 28.3528C4.04559 29.6178 3.48996 31.2887 3.61746 32.7231H0.825898C1.38684 31.5097 3.62059 28.0012 6.92121 24.4575C7.40122 25.0477 7.90778 25.6158 8.43934 26.16C6.81871 26.6472 5.75621 27.5528 5.0934 28.3528H5.09371Z" fill="black"/>
</svg>
