<svg width="40" height="40" viewBox="0 0 40 40" fill="none" xmlns="http://www.w3.org/2000/svg">
<path d="M1.14259 14.076C1.14259 14.076 0.196656 13.3913 1.33322 12.4781L3.97947 10.105C3.97947 10.105 4.73759 9.30533 5.53853 10.0025L29.9682 28.5425V37.4331C29.9682 37.4331 29.956 38.8294 28.1692 38.6756L1.14259 14.076Z" fill="#2489CA"/>
<path d="M7.44029 19.8059L1.14248 25.5443C1.14248 25.5443 0.495605 26.0265 1.14248 26.8897L4.06623 29.5543C4.06623 29.5543 4.76061 30.3028 5.78748 29.4518L12.4622 24.3775L7.44029 19.8059Z" fill="#1070B3"/>
<path d="M18.4952 19.8534L30.043 11.0144L29.9683 2.17154C29.9683 2.17154 29.4752 0.241542 27.8299 1.24685L12.4624 15.2659L18.4952 19.8534Z" fill="#0877B9"/>
<path d="M28.1687 38.6865C28.839 39.375 29.6521 39.149 29.6521 39.149L38.6512 34.7047C39.8033 33.9172 39.6421 32.9406 39.6421 32.9406V6.39529C39.6421 5.22811 38.4508 4.82529 38.4508 4.82529L30.6505 1.05623C28.9465 0.000292599 27.8296 1.24686 27.8296 1.24686C27.8296 1.24686 29.2649 0.210293 29.968 2.17186V37.2709C29.968 37.5125 29.9168 37.749 29.8143 37.9628C29.6093 38.379 29.1624 38.7659 28.0943 38.6037L28.1687 38.6865Z" fill="#3C99D4"/>
</svg>
