<svg xmlns="http://www.w3.org/2000/svg" height="800" width="1200" xml:space="preserve" y="0" x="0" id="Livello_1" version="1.1" viewBox="-912.00555 -278.925 7904.0481 1673.55"><style id="style2" type="text/css">.st1{fill:#63666a}</style><g transform="translate(-.035 .006)" id="g19"><path id="path6" d="M3595.6 667.1l207-86c-11.4-28.9-45.6-49.1-85.9-49.1-51.8 0-123.7 45.6-121.1 135.1m242.9 83.3l78.9 52.6c-25.4 37.7-86.8 102.6-192.9 102.6-131.5 0-226.5-101.8-226.5-231.5 0-137.8 95.9-231.6 215.1-231.6 120.2 0 178.9 95.6 198.2 147.4l10.5 26.3-309.6 128c23.7 46.5 60.5 70.2 112.3 70.2 51.7 0 87.7-25.5 114-64m-501.7 141.2h101.7V211h-101.7zm-166-216.7c0-81.5-54.4-141.2-123.7-141.2-70.1 0-128.9 59.7-128.9 141.2 0 80.7 58.8 139.5 128.9 139.5 69.3 0 123.7-58.8 123.7-139.5zm89.4-218.3v415.7c0 171-100.8 241.2-220.1 241.2-112.3 0-179.8-75.4-205.2-136.8l88.6-36.9c15.8 37.7 54.4 82.4 116.7 82.4 76.3 0 123.7-47.3 123.7-135.9V853h-3.5c-22.8 28.1-66.7 52.6-121.9 52.6-115.8 0-221.9-100.9-221.9-230.7 0-130.7 106.1-232.4 221.9-232.4 55.3 0 99.1 24.5 121.9 51.7h3.5v-37.7c-.1.1 96.3.1 96.3.1zM2150.1 674.1c0-83.4-59.4-140.3-128.3-140.3s-128.3 57-128.3 140.3c0 82.4 59.4 140.3 128.3 140.3 68.8 0 128.3-57.9 128.3-140.3m99.8 0c0 133.3-102.5 231.5-228.2 231.5-125.7 0-228.2-98.2-228.2-231.5 0-134.2 102.5-231.5 228.2-231.5 125.8 0 228.2 97.3 228.2 231.5m411.7 0c0-83.4-59.4-140.3-128.3-140.3s-128.3 57-128.3 140.3c0 82.4 59.4 140.3 128.3 140.3s128.3-57.9 128.3-140.3m99.9 0c0 133.3-102.5 231.5-228.2 231.5-125.7 0-228.2-98.2-228.2-231.5 0-134.2 102.5-231.5 228.2-231.5 125.7 0 228.2 97.3 228.2 231.5M1402.6 905.6c-198.2 0-364.8-161.4-364.8-359.6 0-198.2 166.7-359.6 364.9-359.6 109.7 0 187.7 43 246.5 99.2l-69.3 69.3c-42.1-39.5-99.1-70.2-177.2-70.2-144.7 0-257.9 116.7-257.9 261.4s113.2 261.3 257.9 261.3c93.8 0 147.3-37.7 181.6-71.9 28.1-28 46.5-68.4 53.5-123.6h-235.1v-98.2h330.6c3.6 17.5 5.3 38.6 5.3 61.4 0 73.7-20.2 164.9-85 229.8-63.3 65.7-144 100.7-251 100.7" fill-rule="evenodd" clip-rule="evenodd" fill="#5f6368"/><g transform="translate(-384.028 -1510.84) scale(4.21911)" id="flowRoot2998"><path d="M1077.5 567.9V424.7h18.4l49.8 87.2h.8l49.8-87.2h18.4v143.2h-18.4v-85l.8-24h-.8l-44.8 78.6h-10.8l-44.8-78.6h-.8l.8 24v85z" class="st1" id="path3911"/><path d="M1271.3 571.1c-10.4 0-19.1-3-26.1-9s-10.5-13.9-10.5-23.8c0-10.7 4.1-19 12.4-25.1 8.3-6.1 18.5-9.1 30.6-9.1 10.8 0 19.7 2 26.6 6v-2.8c0-7.2-2.5-13-7.4-17.3-4.9-4.3-11-6.5-18.2-6.5-5.3 0-10.2 1.3-14.5 3.8-4.3 2.5-7.3 6-8.9 10.4l-16.8-7.2c2.3-5.9 6.7-11.3 13.4-16.3s15.5-7.5 26.4-7.5c12.5 0 22.9 3.7 31.2 11s12.4 17.7 12.4 31v59.2h-17.6v-13.6h-.8c-7.3 11.2-18.1 16.8-32.2 16.8zm3-16.8c7.6 0 14.5-2.8 20.7-8.5 6.2-5.7 9.3-12.4 9.3-20.1-5.2-4.3-13-6.4-23.4-6.4-8.9 0-15.7 1.9-20.2 5.8s-6.8 8.4-6.8 13.6c0 4.8 2.1 8.6 6.2 11.4 4.1 2.8 8.9 4.2 14.2 4.2z" class="st1" id="path3913"/><path d="M1393.6 571.1c-7.5 0-14.2-1.6-20.1-4.8-5.9-3.2-10.4-7.2-13.3-12h-.8l.8 13.6v43.2h-18.4V469.9h17.6v13.6h.8c2.9-4.8 7.4-8.8 13.3-12 5.9-3.2 12.6-4.8 20.1-4.8 12.7 0 23.6 5 32.8 15 9.2 10 13.8 22.4 13.8 37.2 0 14.8-4.6 27.2-13.8 37.2-9.2 10-20.1 15-32.8 15zm-3-16.8c8.5 0 15.9-3.2 22-9.7 6.1-6.5 9.2-15 9.2-25.7s-3.1-19.2-9.2-25.7-13.5-9.7-22-9.7c-8.7 0-16 3.2-22.1 9.6-6.1 6.4-9.1 15-9.1 25.8s3 19.4 9.1 25.8c6.1 6.4 13.5 9.6 22.1 9.6z" class="st1" id="path3915"/><path d="M1493.5 571.1c-10.9 0-20-2.7-27.1-8-7.1-5.3-12.4-12-15.7-20l16.4-6.8c5.2 12.3 14.1 18.4 26.6 18.4 5.7 0 10.4-1.3 14.1-3.8 3.7-2.5 5.5-5.9 5.5-10 0-6.4-4.5-10.7-13.4-13l-19.8-4.8c-6.3-1.6-12.2-4.6-17.8-9.1-5.6-4.5-8.4-10.5-8.4-18.1 0-8.7 3.8-15.7 11.5-21.1 7.7-5.4 16.8-8.1 27.3-8.1 8.7 0 16.4 2 23.2 5.9 6.8 3.9 11.7 9.6 14.6 16.9l-16 6.6c-3.6-8.7-11.1-13-22.4-13-5.5 0-10.1 1.1-13.8 3.4-3.7 2.3-5.6 5.3-5.6 9.2 0 5.6 4.3 9.4 13 11.4l19.4 4.6c9.2 2.1 16 5.8 20.4 11 4.4 5.2 6.6 11.1 6.6 17.6 0 8.8-3.6 16.1-10.8 22-7.2 5.8-16.5 8.8-27.8 8.8z" class="st1" id="path3917"/></g><g transform="translate(-583.265 52.894)" id="g842"><path d="M797.6 773.8c34.5 43.1 69.5 97.1 87.9 129.8 22.4 42.5 31.6 71.2 48.3 122.4 9.8 28.2 19 36.8 38.5 36.8 21.3 0 31-14.4 38.5-36.8 15.5-48.3 27.6-85 46.5-120.1 37.3-67.2 84.5-127 130.4-184.4 12.6-16.1 93.1-110.9 129.3-186.1 0 0 44.2-82.2 44.2-197.1 0-107.4-43.7-182.1-43.7-182.1l-126.4 33.9-77 202.2-19 27.6-4 5.2-5.2 6.3-8.6 10.3-12.6 12.6-68.4 55.7-170.6 98.8z" id="path835" fill="#34a853"/><path d="M621.2 521.6C663.1 617 743 700.3 797.6 773.8l289-342.4s-40.8 53.4-114.3 53.4c-82.2 0-148.8-65.5-148.8-148.2 0-56.9 33.9-95.9 33.9-95.9l-196 52.3z" id="path833" fill="#fbbc04"/><path d="M1090-35.1c95.9 31 178.1 95.9 227.5 191.9l-231 275.2s33.9-39.6 33.9-95.9c0-84.5-71.2-148.2-148.2-148.2-73 0-114.9 52.9-114.9 52.9V67.2z" id="path831" fill="#4285f4"/><path d="M674 86.1c57.4-68.4 158-139 297-139 67.2 0 118.3 17.8 118.3 17.8l-232 275.8H693z" id="path829" fill="#1a73e8"/><path d="M621.2 521.6s-37.9-75.3-37.9-183.8c0-102.8 40.2-192.5 91.3-251.1l183.3 154.5z" id="path827" fill="#ea4335"/></g></g></svg>