<svg width="24" height="24" viewBox="0 0 24 24" fill="none" xmlns="http://www.w3.org/2000/svg">
<path d="M15.75 12.75C15.75 14.8211 14.0711 16.5 12 16.5C9.92893 16.5 8.25 14.8211 8.25 12.75C8.25 10.6789 9.92893 9 12 9C14.0711 9 15.75 10.6789 15.75 12.75Z" fill="black"/>
<path d="M3 6C1.34315 6 0 7.34315 0 9V18C0 19.6569 1.34315 21 3 21H21C22.6569 21 24 19.6569 24 18V9C24 7.34315 22.6569 6 21 6H19.2426C18.447 6 17.6839 5.68393 17.1213 5.12132L15.8787 3.87868C15.3161 3.31607 14.553 3 13.7574 3H10.2426C9.44699 3 8.68393 3.31607 8.12132 3.87868L6.87868 5.12132C6.31607 5.68393 5.55301 6 4.75736 6H3ZM3.75 9C3.33579 9 3 8.66421 3 8.25C3 7.83579 3.33579 7.5 3.75 7.5C4.16421 7.5 4.5 7.83579 4.5 8.25C4.5 8.66421 4.16421 9 3.75 9ZM17.25 12.75C17.25 15.6495 14.8995 18 12 18C9.1005 18 6.75 15.6495 6.75 12.75C6.75 9.8505 9.1005 7.5 12 7.5C14.8995 7.5 17.25 9.8505 17.25 12.75Z" fill="black"/>
</svg>
