<svg width="12" height="12" viewBox="0 0 12 12" fill="none" xmlns="http://www.w3.org/2000/svg">
<path d="M12 6C12 9.31371 9.31371 12 6 12C2.68629 12 0 9.31371 0 6C0 2.68629 2.68629 0 6 0C9.31371 0 12 2.68629 12 6ZM6 3C5.59844 3 5.28467 3.34671 5.32463 3.74628L5.58769 6.37686C5.60887 6.58869 5.78712 6.75 6 6.75C6.21288 6.75 6.39113 6.58869 6.41231 6.37686L6.67537 3.74628C6.71533 3.34671 6.40156 3 6 3ZM6.00116 7.5C5.58694 7.5 5.25116 7.83579 5.25116 8.25C5.25116 8.66421 5.58694 9 6.00116 9C6.41537 9 6.75116 8.66421 6.75116 8.25C6.75116 7.83579 6.41537 7.5 6.00116 7.5Z" fill="#D93025"/>
</svg>
